<svg width="94" height="93" viewBox="0 0 94 93" fill="none" xmlns="http://www.w3.org/2000/svg">
<path d="M81.2853 29.4661H80.8823V1.98681C80.8821 0.889478 79.9924 0 78.8953 0H14.1122C13.0151 0 12.1254 0.889478 12.1254 1.98681V49.1359H11.7224C5.25875 49.1359 0 54.3945 0 60.8583C0 67.3221 5.25875 72.5807 11.7224 72.5807H12.1254V90.4868C12.1254 91.5841 13.0151 92.4736 14.1122 92.4736H78.8953C79.9924 92.4736 80.8821 91.5841 80.8821 90.4868V52.9109H81.2851C87.7487 52.9109 93.0075 47.6523 93.0075 41.1885C93.0075 34.7247 87.7489 29.4661 81.2853 29.4661ZM12.1252 68.6072H11.7222C7.44952 68.6072 3.97343 65.1312 3.97343 60.8585C3.97343 56.5859 7.44952 53.1098 11.7222 53.1098H12.1252V68.6072ZM76.9085 29.4661H71.2108V25.8646C71.2108 24.245 70.3733 22.7945 68.9707 21.9849C67.568 21.1751 65.8932 21.1749 64.4902 21.9851L54.8127 27.5732C53.41 28.383 52.5729 29.8335 52.5729 31.453C52.5729 33.0724 53.4102 34.5229 54.8126 35.3325L64.4902 40.9208C65.1915 41.326 65.961 41.5282 66.7307 41.5282C67.5 41.5282 68.2693 41.3258 68.9707 40.9208C70.3735 40.111 71.2108 38.6605 71.2108 37.0409V33.4394H76.9085V88.5H16.099V72.5809H40.2745V76.1824C40.2745 77.802 41.1119 79.2525 42.5145 80.0623C43.2158 80.4673 43.9851 80.6697 44.7546 80.6697C45.5241 80.6697 46.2936 80.4673 46.995 80.0621L56.6725 74.474C58.0753 73.6642 58.9124 72.2137 58.9124 70.5943C58.9124 68.9749 58.0751 67.5243 56.6727 66.7145L46.995 61.1262C45.5921 60.3162 43.9169 60.3162 42.5145 61.1262C41.1118 61.936 40.2745 63.3863 40.2745 65.0059V68.6074H16.0992V3.97362H76.9086L76.9085 29.4661ZM67.237 25.8646V37.0415C67.237 37.2831 67.0993 37.4134 66.9839 37.48C66.8686 37.5466 66.6865 37.6008 66.4774 37.48L56.7996 31.8917C56.5903 31.7709 56.5467 31.5864 56.5467 31.4531C56.5467 31.3199 56.5905 31.1354 56.7998 31.0144L66.4773 25.4263C66.6867 25.3055 66.8682 25.3595 66.9839 25.4263C67.0991 25.4929 67.237 25.623 67.237 25.8646ZM44.2481 76.1822V65.0053C44.2481 64.7638 44.3858 64.6336 44.5012 64.5668C44.5668 64.5288 44.6537 64.4951 44.7548 64.4951C44.8319 64.4953 44.9171 64.5148 45.0075 64.567L54.6853 70.1554C54.8946 70.2761 54.9382 70.4606 54.9382 70.5939C54.9382 70.7271 54.8944 70.9116 54.6851 71.0324L45.0076 76.6205C44.7982 76.7417 44.6163 76.6874 44.501 76.6205C44.3858 76.5541 44.2481 76.4238 44.2481 76.1822ZM81.2853 48.9374H80.8823V33.44H81.2853C85.558 33.44 89.0341 36.9161 89.0341 41.1887C89.0341 45.4613 85.5578 48.9374 81.2853 48.9374Z" fill="#EF3B43"/>
<rect x="22.4688" y="12.918" width="40.183" height="5.02287" fill="#EF3B43"/>
<rect x="22.4688" y="25.1152" width="25.1144" height="5.02287" fill="#EF3B43"/>
<rect x="22.4688" y="37.3145" width="25.1144" height="5.02287" fill="#EF3B43"/>
<rect x="22.4688" y="49.5137" width="30.1372" height="5.02287" fill="#EF3B43"/>
</svg>
