<svg width="100" height="98" viewBox="0 0 100 98" fill="none" xmlns="http://www.w3.org/2000/svg">
<path d="M93.8776 30.6123H73.4694V6.12245C73.4694 2.74653 70.7229 0 67.3469 0H6.12245C2.74653 0 0 2.74653 0 6.12245V44.898C0 48.2739 2.74653 51.0204 6.12245 51.0204H7.14286V64.2857C7.14286 65.1239 7.65551 65.877 8.43531 66.1843C8.67837 66.2802 8.93184 66.3265 9.18327 66.3265C9.73816 66.3265 10.282 66.1 10.6757 65.6782L24.3563 51.0204H26.5306V75.5102C26.5306 78.8861 29.2771 81.6327 32.6531 81.6327H71.4286V95.9184C71.4286 96.7437 71.9259 97.488 72.6884 97.8039C72.9408 97.9086 73.2059 97.9594 73.469 97.9594C74 97.9594 74.522 97.7519 74.9125 97.3617L90.6412 81.6329H93.8776C97.2535 81.6329 100 78.8863 100 75.5104V36.7349C100 33.359 97.2535 30.6123 93.8776 30.6123ZM26.5306 36.7347V46.9388H23.4694C22.9037 46.9388 22.3635 47.1735 21.9773 47.5872L11.2245 59.1084V48.9798C11.2245 47.8527 10.3108 46.939 9.18367 46.939H6.12245C4.99714 46.939 4.08163 46.0235 4.08163 44.8982V6.12265C4.08163 4.99735 4.99714 4.08184 6.12245 4.08184H67.3469C68.4722 4.08184 69.3878 4.99735 69.3878 6.12265V30.6125H32.6531C29.2771 30.6123 26.5306 33.359 26.5306 36.7347ZM95.9184 75.5104C95.9184 76.6357 95.0029 77.5512 93.8776 77.5512H89.7959C89.2547 77.5512 88.7355 77.7663 88.3529 78.149L75.5102 90.9915V79.5921C75.5102 78.4649 74.5965 77.5512 73.4694 77.5512H32.6531C31.5278 77.5512 30.6122 76.6357 30.6122 75.5104V36.7349C30.6122 35.6096 31.5278 34.6941 32.6531 34.6941H93.8776C95.0029 34.6941 95.9184 35.6096 95.9184 36.7349V75.5104Z" fill="#009C4E"/>
<path d="M61.2208 10.2031H22.4453V14.2848H61.2208V10.2031Z" fill="#009C4E"/>
<path d="M61.2218 20.4082H12.2422V24.4898H61.2218V20.4082Z" fill="#009C4E"/>
<path d="M22.4463 30.6113H12.2422V34.693H22.4463V30.6113Z" fill="#009C4E"/>
<path d="M19.385 10.2031H12.2422V14.2848H19.385V10.2031Z" fill="#009C4E"/>
<path d="M89.7956 43.8789H36.7344V47.9606H89.7956V43.8789Z" fill="#009C4E"/>
<path d="M89.7956 54.082H36.7344V58.1637H89.7956V54.082Z" fill="#009C4E"/>
<path d="M75.5099 64.2852H36.7344V68.3668H75.5099V64.2852Z" fill="#009C4E"/>
<path d="M89.7978 64.2852H79.5938V68.3668H89.7978V64.2852Z" fill="#009C4E"/>
</svg>
