<svg width="124" height="109" viewBox="0 0 124 109" fill="none" xmlns="http://www.w3.org/2000/svg">
<path d="M111.713 108.23H11.6085C8.52975 108.23 5.57701 107.007 3.39999 104.83C1.22297 102.653 0 99.7004 0 96.6216V26.8738C0 23.795 1.22297 20.8423 3.39999 18.6653C5.57701 16.4883 8.52975 15.2652 11.6085 15.2652H27.6668C28.9487 15.265 30.2177 15.01 31.4001 14.5151C32.5825 14.0203 33.6549 13.2953 34.5547 12.3824L41.5004 5.32057C43.1019 3.67792 45.0153 2.37144 47.1282 1.47775C49.2412 0.584066 51.5112 0.121141 53.8054 0.116081L68.8385 0H68.974C73.5906 0.00406419 78.0167 1.84132 81.2791 5.10778L88.631 12.4405C90.444 14.2489 92.9 15.2647 95.4607 15.2652H111.713C114.791 15.2652 117.744 16.4883 119.921 18.6653C122.098 20.8423 123.321 23.795 123.321 26.8738V67.0973C123.321 68.1235 122.913 69.1078 122.188 69.8334C121.462 70.5591 120.478 70.9668 119.452 70.9668C118.425 70.9668 117.441 70.5591 116.716 69.8334C115.99 69.1078 115.582 68.1235 115.582 67.0973V26.8738C115.582 25.8475 115.174 24.8633 114.449 24.1376C113.723 23.4119 112.739 23.0043 111.713 23.0043H95.4607C93.1751 23.0122 90.9104 22.5665 88.7982 21.6931C86.686 20.8196 84.7682 19.5358 83.1557 17.9158L75.8035 10.5637C73.9906 8.75535 71.5347 7.73956 68.974 7.73902V7.73902L53.9216 7.8551C52.6496 7.86298 51.3915 8.12169 50.2195 8.61635C49.0476 9.11102 47.9848 9.83197 47.0919 10.7379L40.1462 17.7998C38.5273 19.4462 36.5971 20.7542 34.468 21.6477C32.3389 22.5412 30.0533 23.0023 27.7443 23.0043H11.6858C10.6595 23.0043 9.67533 23.4119 8.94966 24.1376C8.22398 24.8633 7.81625 25.8475 7.81625 26.8738V96.6216C7.81625 97.6479 8.22398 98.6321 8.94966 99.3578C9.67533 100.083 10.6595 100.491 11.6858 100.491H111.79C112.816 100.491 113.801 100.083 114.526 99.3578C115.252 98.6321 115.659 97.6479 115.659 96.6216V86.5029C115.659 85.4766 116.067 84.4924 116.793 83.7667C117.519 83.041 118.503 82.6333 119.529 82.6333C120.555 82.6333 121.54 83.041 122.265 83.7667C122.991 84.4924 123.398 85.4766 123.398 86.5029V96.6216C123.398 98.1526 123.096 99.6685 122.508 101.082C121.919 102.495 121.057 103.779 119.971 104.858C118.885 105.937 117.596 106.79 116.179 107.369C114.761 107.948 113.244 108.24 111.713 108.23Z" fill="#006635"/>
<path d="M99.1398 43.1251C97.9009 43.1212 96.6907 42.7503 95.6624 42.0592C94.6341 41.3681 93.8338 40.3877 93.3623 39.242C92.8908 38.0962 92.7694 36.8364 93.0134 35.6217C93.2575 34.407 93.8561 33.2918 94.7335 32.4171C95.611 31.5423 96.7279 30.9472 97.9434 30.7069C99.1588 30.4666 100.418 30.5919 101.563 31.0669C102.707 31.5419 103.685 32.3454 104.373 33.3758C105.061 34.4063 105.428 35.6175 105.428 36.8565C105.423 38.5208 104.758 40.1152 103.579 41.2902C102.401 42.4653 100.804 43.1251 99.1398 43.1251ZM99.1398 34.4573C98.6662 34.4612 98.2043 34.6051 97.8123 34.8711C97.4203 35.137 97.1159 35.513 96.9373 35.9517C96.7587 36.3904 96.7138 36.8721 96.8086 37.3362C96.9033 37.8003 97.1333 38.226 97.4696 38.5596C97.8059 38.8932 98.2334 39.1197 98.6982 39.2107C99.163 39.3018 99.6445 39.2532 100.082 39.071C100.519 38.8889 100.892 38.5814 101.155 38.1873C101.418 37.7932 101.558 37.3302 101.558 36.8565C101.558 36.5398 101.496 36.2262 101.374 35.9339C101.252 35.6415 101.074 35.3762 100.849 35.1532C100.624 34.9301 100.357 34.7538 100.064 34.6344C99.7705 34.515 99.4565 34.4548 99.1398 34.4573V34.4573Z" fill="#006635"/>
<path d="M61.1178 88.5715C55.1896 88.5715 49.3946 86.8133 44.4658 83.5194C39.5369 80.2255 35.6956 75.5437 33.4279 70.0664C31.1601 64.5891 30.5678 58.5623 31.7257 52.7483C32.8837 46.9343 35.7399 41.5943 39.9331 37.4038C44.1263 33.2132 49.4681 30.3605 55.2829 29.2063C61.0976 28.0521 67.1242 28.6484 72.6 30.9197C78.0759 33.1909 82.755 37.0352 86.0458 41.9661C89.3365 46.8971 91.091 52.6933 91.0872 58.6215C91.0769 66.565 87.9156 74.1798 82.2969 79.7949C76.6783 85.4099 69.0613 88.5664 61.1178 88.5715V88.5715ZM61.1178 36.3331C56.7211 36.3331 52.423 37.6369 48.7673 40.0796C45.1115 42.5223 42.2623 45.9942 40.5797 50.0563C38.8972 54.1184 38.457 58.5881 39.3148 62.9004C40.1725 67.2126 42.2897 71.1737 45.3987 74.2827C48.5076 77.3916 52.4687 79.5088 56.7809 80.3666C61.0932 81.2244 65.5628 80.7842 69.6249 79.1016C73.687 77.419 77.159 74.5697 79.6017 70.914C82.0444 67.2582 83.3482 62.9602 83.3482 58.5635C83.3277 52.6793 80.9773 47.0428 76.811 42.8874C72.6448 38.7321 67.0021 36.3962 61.1178 36.3912V36.3331Z" fill="#006635"/>
</svg>
