<svg width="141" height="126" viewBox="0 0 141 126" fill="none" xmlns="http://www.w3.org/2000/svg">
<path d="M105.531 45.0687H68.7707C68.2576 45.0687 67.7654 44.8649 67.4025 44.5021C67.0397 44.1392 66.8359 43.6471 66.8359 43.134C66.8359 42.6208 67.0397 42.1287 67.4025 41.7659C67.7654 41.4031 68.2576 41.1992 68.7707 41.1992H105.531C106.044 41.1992 106.536 41.4031 106.899 41.7659C107.262 42.1287 107.466 42.6208 107.466 43.134C107.466 43.6471 107.262 44.1392 106.899 44.5021C106.536 44.8649 106.044 45.0687 105.531 45.0687Z" fill="#006635"/>
<path d="M105.531 56.8695H68.7707C68.2576 56.8695 67.7654 56.6657 67.4025 56.3028C67.0397 55.94 66.8359 55.4479 66.8359 54.9348C66.8359 54.4216 67.0397 53.9295 67.4025 53.5667C67.7654 53.2038 68.2576 53 68.7707 53H105.531C106.044 53 106.536 53.2038 106.899 53.5667C107.262 53.9295 107.466 54.4216 107.466 54.9348C107.466 55.4479 107.262 55.94 106.899 56.3028C106.536 56.6657 106.044 56.8695 105.531 56.8695Z" fill="#006635"/>
<path d="M105.531 68.7289H68.7707C68.2576 68.7289 67.7654 68.525 67.4025 68.1622C67.0397 67.7994 66.8359 67.3073 66.8359 66.7941C66.8359 66.281 67.0397 65.7889 67.4025 65.4261C67.7654 65.0632 68.2576 64.8594 68.7707 64.8594H105.531C106.044 64.8594 106.536 65.0632 106.899 65.4261C107.262 65.7889 107.466 66.281 107.466 66.7941C107.466 67.3073 107.262 67.7994 106.899 68.1622C106.536 68.525 106.044 68.7289 105.531 68.7289Z" fill="#006635"/>
<path d="M135.089 108.915C134.432 108.925 133.779 108.827 133.154 108.625L108.525 100.363C97.4325 105.706 84.8126 106.968 72.8821 103.928C60.9517 100.889 50.4741 93.742 43.2902 83.7437C36.1063 73.7455 32.6758 61.5353 33.6013 49.2587C34.5268 36.982 39.7493 25.4242 48.351 16.616C56.9527 7.80776 68.3831 2.31264 80.6344 1.09614C92.8857 -0.120362 105.174 3.01956 115.34 9.96423C125.506 16.9089 132.899 27.214 136.221 39.069C139.542 50.9239 138.58 63.5703 133.502 74.786L140.738 101.602C140.97 102.462 141.001 103.365 140.827 104.239C140.654 105.114 140.281 105.937 139.739 106.644C139.196 107.351 138.498 107.924 137.698 108.318C136.899 108.712 136.019 108.916 135.128 108.915H135.089ZM108.66 92.6245C109.488 92.6286 110.31 92.759 111.098 93.0114L132.283 100.131L125.976 76.8175C125.512 75.0775 125.67 73.2302 126.421 71.5937C129.471 64.8938 130.801 57.5389 130.291 50.1953C129.631 40.6677 125.931 31.6033 119.736 24.335C113.541 17.0667 105.177 11.9782 95.8741 9.81789C86.5713 7.65755 76.8207 8.53941 68.0564 12.3337C59.2921 16.128 51.9765 22.6345 47.1857 30.8964C42.3949 39.1582 40.3817 48.7394 41.4421 58.2307C42.5026 67.722 46.5807 76.6226 53.0767 83.6234C59.5726 90.6243 68.1438 95.3559 77.5294 97.1225C86.915 98.889 96.6196 97.5972 105.216 93.4371C106.289 92.9128 107.466 92.6352 108.66 92.6245V92.6245Z" fill="#006635"/>
<path d="M5.1732 125.883C4.3796 125.887 3.59573 125.708 2.883 125.359C2.17026 125.01 1.54801 124.501 1.06468 123.871C0.581347 123.242 0.250027 122.509 0.096827 121.73C-0.0563735 120.952 -0.0274773 120.148 0.181378 119.383L4.9023 101.97C1.08455 93.1796 0.891968 83.2376 4.36665 74.3063C7.84134 65.375 14.7021 58.177 23.4565 54.278C23.9233 54.0491 24.4313 53.9167 24.9503 53.8885C25.4694 53.8603 25.9889 53.937 26.4777 54.114C26.9665 54.2911 27.4147 54.5647 27.7953 54.9188C28.176 55.2728 28.4813 55.6998 28.6933 56.1745C28.9052 56.6492 29.0196 57.1616 29.0291 57.6814C29.0386 58.2011 28.9432 58.7175 28.7488 59.1996C28.5543 59.6817 28.2648 60.1197 27.8973 60.4874C27.5299 60.8552 27.0921 61.1451 26.6102 61.3399C21.8947 63.4859 17.8396 66.8551 14.8661 71.0977C11.8926 75.3403 10.1089 80.3015 9.70045 85.4663C9.36157 90.1702 10.1994 94.8845 12.1383 99.1837C12.7593 100.549 12.8891 102.087 12.5058 103.537L8.90714 116.829L20.8253 112.843C22.4362 112.301 24.1964 112.419 25.7203 113.172C29.2321 114.869 33.0538 115.831 36.9507 115.997C40.8476 116.164 44.7376 115.532 48.3814 114.14C52.0252 112.749 55.346 110.627 58.1399 107.905C60.9338 105.183 63.1418 101.919 64.6282 98.313C65.0233 97.3638 65.7793 96.6103 66.7299 96.2184C67.6805 95.8266 68.7479 95.8284 69.6972 96.2235C70.6465 96.6186 71.4 97.3746 71.7919 98.3253C72.1837 99.2759 72.1818 100.343 71.7867 101.293C69.2846 107.38 65.1738 112.671 59.8945 116.601C54.6152 120.531 48.3664 122.95 41.8173 123.6C35.2951 124.233 28.7223 123.111 22.7794 120.35L6.81769 125.709C6.28171 125.851 5.72707 125.91 5.1732 125.883Z" fill="#006635"/>
</svg>
