<svg width="136" height="144" viewBox="0 0 136 144" fill="none" xmlns="http://www.w3.org/2000/svg">
<path d="M76.7899 77.7186C72.1712 77.7186 67.6563 76.3491 63.816 73.7831C59.9757 71.2171 56.9827 67.5699 55.2152 63.3028C53.4477 59.0357 52.9851 54.3402 53.8862 49.8103C54.7873 45.2804 57.0115 41.1194 60.2774 37.8535C63.5433 34.5876 67.7041 32.3634 72.234 31.4624C76.764 30.5613 81.4594 31.0238 85.7265 32.7913C89.9936 34.5588 93.6408 37.552 96.2068 41.3923C98.7728 45.2326 100.142 49.7475 100.142 54.3661C100.137 60.558 97.6752 66.4949 93.2969 70.8732C88.9186 75.2515 82.9817 77.7135 76.7899 77.7186V77.7186ZM76.7899 38.7528C73.7018 38.7528 70.6832 39.6684 68.1156 41.384C65.548 43.0996 63.5467 45.5383 62.3649 48.3912C61.1832 51.2442 60.874 54.3835 61.4764 57.4122C62.0789 60.4409 63.566 63.223 65.7496 65.4065C67.9331 67.5901 70.7152 69.0772 73.7439 69.6797C76.7726 70.2821 79.9119 69.9729 82.7649 68.7912C85.6179 67.6094 88.0564 65.6082 89.772 63.0405C91.4876 60.4729 92.4035 57.4542 92.4035 54.3661C92.3983 50.2268 90.7517 46.2584 87.8247 43.3314C84.8977 40.4044 80.9292 38.7579 76.7899 38.7528Z" fill="#006635"/>
<path d="M78.4898 114.46C71.2955 114.465 64.1346 113.482 57.2075 111.539L53.2027 110.416C51.1887 109.851 49.3233 108.851 47.7387 107.485C46.1542 106.12 44.8891 104.423 44.0327 102.514C43.1763 100.606 42.7497 98.5328 42.7831 96.4413C42.8164 94.3498 43.3087 92.2912 44.2254 90.411L51.8484 74.7977C52.0524 74.3125 52.353 73.874 52.7322 73.5091C53.1114 73.1442 53.561 72.8605 54.0536 72.6753C54.5462 72.4901 55.0714 72.4073 55.597 72.432C56.1227 72.4567 56.6379 72.5884 57.1109 72.819C57.584 73.0496 58.005 73.3743 58.3482 73.7731C58.6915 74.172 58.95 74.6367 59.1076 75.1388C59.2651 75.6409 59.3185 76.17 59.2646 76.6934C59.2107 77.2169 59.0507 77.724 58.7941 78.1835L51.1905 93.7968C50.7843 94.6661 50.574 95.6138 50.574 96.5732C50.574 97.5326 50.7843 98.4804 51.1905 99.3496C51.5793 100.226 52.1576 101.004 52.8836 101.63C53.6096 102.256 54.4652 102.713 55.389 102.968L59.3938 104.09C71.927 107.611 85.1882 107.611 97.7214 104.09L101.726 102.968C102.65 102.713 103.506 102.256 104.232 101.63C104.958 101.004 105.536 100.226 105.925 99.3496C106.331 98.4804 106.541 97.5326 106.541 96.5732C106.541 95.6138 106.331 94.6661 105.925 93.7968L98.3019 78.1835C97.8529 77.2598 97.7892 76.1956 98.1248 75.225C98.4604 74.2544 99.1678 73.4569 100.091 73.0079C101.015 72.5589 102.079 72.4953 103.05 72.8309C104.02 73.1665 104.818 73.874 105.267 74.7977L112.87 90.411C113.787 92.2912 114.28 94.3498 114.313 96.4413C114.346 98.5328 113.92 100.606 113.063 102.514C112.207 104.423 110.942 106.12 109.357 107.485C107.772 108.851 105.907 109.851 103.893 110.416L99.8883 111.539C92.9243 113.494 85.7232 114.477 78.4898 114.46V114.46Z" fill="#006635"/>
<path d="M124.152 143.172H24.2413C21.1626 143.172 18.2098 141.949 16.0328 139.772C13.8558 137.595 12.6328 134.642 12.6328 131.563V11.6085C12.6328 8.52975 13.8558 5.57713 16.0328 3.40011C18.2098 1.22309 21.1626 0 24.2413 0H124.152C127.231 0 130.183 1.22309 132.36 3.40011C134.537 5.57713 135.761 8.52975 135.761 11.6085V131.563C135.761 134.642 134.537 137.595 132.36 139.772C130.183 141.949 127.231 143.172 124.152 143.172ZM24.2413 7.73902C23.2151 7.73902 22.2309 8.14675 21.5052 8.87243C20.7796 9.5981 20.3718 10.5823 20.3718 11.6085V131.563C20.3718 132.59 20.7796 133.574 21.5052 134.3C22.2309 135.025 23.2151 135.433 24.2413 135.433H124.152C125.178 135.433 126.163 135.025 126.888 134.3C127.614 133.574 128.022 132.59 128.022 131.563V11.6085C128.022 10.5823 127.614 9.5981 126.888 8.87243C126.163 8.14675 125.178 7.73902 124.152 7.73902H24.2413Z" fill="#006635"/>
<path d="M29.0213 48.6605H1.93475C1.42163 48.6605 0.929423 48.4567 0.566586 48.0938C0.20375 47.731 0 47.2389 0 46.7258C0 46.2126 0.20375 45.7204 0.566586 45.3576C0.929423 44.9948 1.42163 44.791 1.93475 44.791H29.0213C29.5344 44.791 30.0267 44.9948 30.3895 45.3576C30.7523 45.7204 30.9561 46.2126 30.9561 46.7258C30.9561 47.2389 30.7523 47.731 30.3895 48.0938C30.0267 48.4567 29.5344 48.6605 29.0213 48.6605Z" fill="#006635"/>
<path d="M29.0213 73.4808H1.93475C1.42163 73.4808 0.929423 73.2771 0.566586 72.9143C0.20375 72.5514 0 72.0592 0 71.5461C0 71.033 0.20375 70.5409 0.566586 70.178C0.929423 69.8152 1.42163 69.6113 1.93475 69.6113H29.0213C29.5344 69.6113 30.0267 69.8152 30.3895 70.178C30.7523 70.5409 30.9561 71.033 30.9561 71.5461C30.9561 72.0592 30.7523 72.5514 30.3895 72.9143C30.0267 73.2771 29.5344 73.4808 29.0213 73.4808Z" fill="#006635"/>
<path d="M29.0213 98.3051H1.93475C1.42163 98.3051 0.929423 98.1012 0.566586 97.7384C0.20375 97.3755 0 96.8834 0 96.3703C0 95.8572 0.20375 95.3651 0.566586 95.0023C0.929423 94.6394 1.42163 94.4355 1.93475 94.4355H29.0213C29.5344 94.4355 30.0267 94.6394 30.3895 95.0023C30.7523 95.3651 30.9561 95.8572 30.9561 96.3703C30.9561 96.8834 30.7523 97.3755 30.3895 97.7384C30.0267 98.1012 29.5344 98.3051 29.0213 98.3051Z" fill="#006635"/>
</svg>
