<svg width="101" height="106" viewBox="0 0 101 106" fill="none" xmlns="http://www.w3.org/2000/svg">
<path d="M74.1978 105.713H11.6085C8.52975 105.713 5.57701 104.49 3.39999 102.313C1.22297 100.136 0 97.1829 0 94.1041V31.5148C0 28.436 1.22297 25.4833 3.39999 23.3063C5.57701 21.1293 8.52975 19.9062 11.6085 19.9062H48.2527C49.2789 19.9062 50.2631 20.3139 50.9888 21.0396C51.7144 21.7653 52.1222 22.7495 52.1222 23.7758C52.1222 24.802 51.7144 25.7862 50.9888 26.5119C50.2631 27.2376 49.2789 27.6453 48.2527 27.6453H11.6085C10.5823 27.6453 9.59787 28.0529 8.87219 28.7786C8.14652 29.5043 7.73902 30.4885 7.73902 31.5148V94.1041C7.73902 95.1304 8.14652 96.1146 8.87219 96.8403C9.59787 97.5659 10.5823 97.9736 11.6085 97.9736H74.1978C75.224 97.9736 76.2082 97.5659 76.9339 96.8403C77.6596 96.1146 78.0673 95.1304 78.0673 94.1041V57.8274C78.0673 56.8012 78.475 55.817 79.2007 55.0913C79.9264 54.3656 80.9106 53.9579 81.9368 53.9579C82.9631 53.9579 83.9472 54.3656 84.6729 55.0913C85.3986 55.817 85.8063 56.8012 85.8063 57.8274V94.1041C85.8063 97.1829 84.5831 100.136 82.4061 102.313C80.2291 104.49 77.2766 105.713 74.1978 105.713V105.713Z" fill="#006635"/>
<path d="M43.6116 72.1268C42.7527 72.1299 41.9026 71.9542 41.1153 71.6109C40.3279 71.2677 39.6206 70.7643 39.0383 70.1328C38.456 69.5014 38.0115 68.7558 37.733 67.9432C37.4545 67.1307 37.348 66.2691 37.4205 65.4132L38.4073 53.8047C38.7395 50.1175 40.2293 46.6299 42.6636 43.8407L76.7927 4.79738C78.7391 2.55518 81.4825 1.15958 84.4408 0.906729C87.3992 0.653878 90.3398 1.56365 92.6385 3.44302L94.5732 5.06827L96.6433 6.88689C98.8855 8.83326 100.281 11.5767 100.534 14.5351C100.787 17.4935 99.8769 20.4339 97.9976 22.7325L65.3583 63.0141C63.0423 65.8917 59.8715 67.9583 56.3037 68.9152V68.9152L45.1208 71.8366C44.6317 71.9955 44.1247 72.0929 43.6116 72.1268V72.1268ZM85.4217 8.68625C84.8895 8.68334 84.3631 8.79602 83.8787 9.01649C83.3944 9.23696 82.9637 9.55997 82.6164 9.9632L48.5066 49.0065C47.1416 50.5659 46.3023 52.5154 46.1075 54.5786L45.3142 63.9041L54.369 61.5244C56.3641 60.9811 58.1376 59.8236 59.438 58.2159L92.0967 17.9344C92.7047 17.1864 92.9981 16.2314 92.9151 15.2711C92.832 14.3108 92.3791 13.4204 91.6517 12.7879L87.7822 9.51818C87.1146 8.9776 86.2807 8.68379 85.4217 8.68625Z" fill="#006635"/>
<path d="M88.898 29.9499C88.4459 29.9508 88.0078 29.7934 87.6597 29.5049L71.9883 16.3099C71.6367 15.97 71.4269 15.5095 71.4011 15.0211C71.3754 14.5328 71.5356 14.0528 71.8494 13.6777C72.1632 13.3026 72.6074 13.0603 73.0926 12.9994C73.5779 12.9386 74.0681 13.0638 74.4648 13.3498L90.1556 26.5448C90.4562 26.8018 90.6707 27.1449 90.7704 27.5276C90.8701 27.9104 90.85 28.3144 90.713 28.6855C90.576 29.0565 90.3285 29.3766 90.004 29.6027C89.6795 29.8288 89.2935 29.95 88.898 29.9499V29.9499Z" fill="#006635"/>
</svg>
