<svg width="97" height="129" viewBox="0 0 97 129" fill="none" xmlns="http://www.w3.org/2000/svg">
<path d="M88.5536 128.619H7.73902C5.6865 128.619 3.71805 127.804 2.2667 126.352C0.815353 124.901 0 122.933 0 120.88V8.19996C0 6.14744 0.815353 4.17899 2.2667 2.72764C3.71805 1.27629 5.6865 0.460941 7.73902 0.460941H58.0426C60.058 0.459044 61.9945 1.24341 63.4406 2.64722L93.8548 32.191C94.6001 32.9113 95.1931 33.774 95.5985 34.7278C96.004 35.6817 96.2137 36.7072 96.2153 37.7437V120.938C96.2002 122.967 95.3887 124.909 93.9557 126.346C92.5227 127.782 90.5827 128.599 88.5536 128.619ZM58.12 8.19996H7.81637V120.88H88.6311V37.8404L58.12 8.19996Z" fill="#006635"/>
<path d="M92.564 38.0916H63.6975C62.1581 38.0916 60.6818 37.4801 59.5933 36.3916C58.5047 35.3031 57.8933 33.8267 57.8933 32.2873L57.7578 4.33008H61.6273L61.7628 32.2873C61.7628 32.8004 61.9666 33.2925 62.3295 33.6554C62.6923 34.0182 63.1844 34.2221 63.6975 34.2221H92.564V38.0916Z" fill="#006635"/>
</svg>
