<svg width="131" height="126" viewBox="0 0 131 126" fill="none" xmlns="http://www.w3.org/2000/svg">
<path d="M20.6051 121.376H7.73902C5.6865 121.376 3.71805 120.56 2.2667 119.109C0.815353 117.658 0 115.689 0 113.637V80.6296C0 78.5771 0.815353 76.6087 2.2667 75.1573C3.71805 73.706 5.6865 72.8906 7.73902 72.8906H20.6051C22.6576 72.8906 24.626 73.706 26.0774 75.1573C27.5287 76.6087 28.3441 78.5771 28.3441 80.6296V113.637C28.3441 115.689 27.5287 117.658 26.0774 119.109C24.626 120.56 22.6576 121.376 20.6051 121.376ZM7.73902 80.6296V113.637H20.6051V80.6296H7.73902Z" fill="#006635"/>
<path d="M75.8025 104.602C73.986 104.607 72.1993 104.14 70.6174 103.247L48.7159 91.3488C47.8154 90.8562 47.1474 90.026 46.859 89.0409C46.5705 88.0558 46.6852 86.9964 47.1778 86.0959C47.6704 85.1954 48.5005 84.5274 49.4856 84.239C50.4707 83.9505 51.5301 84.0652 52.4306 84.5578L74.3321 96.5146C74.9886 96.8667 75.755 96.9546 76.4743 96.7604C77.1936 96.5662 77.8114 96.1046 78.2016 95.4698C78.391 95.1567 78.516 94.8088 78.5692 94.4466C78.6223 94.0845 78.6027 93.7153 78.5112 93.3609C78.2981 92.5516 77.7774 91.8574 77.0601 91.4262L58.6025 80.5722C54.778 78.3244 50.4241 77.1357 45.988 77.1283C40.7693 77.119 35.682 78.7651 31.4579 81.8297L26.563 85.3316C26.1544 85.6697 25.6809 85.9202 25.1715 86.0676C24.6622 86.2149 24.1279 86.2561 23.602 86.1884C23.0761 86.1207 22.5698 85.9455 22.1144 85.674C21.6589 85.4024 21.2641 85.0401 20.9545 84.6096C20.6449 84.1792 20.4272 83.6896 20.3147 83.1715C20.2022 82.6533 20.1973 82.1176 20.3005 81.5975C20.4037 81.0773 20.6128 80.584 20.9146 80.148C21.2164 79.7121 21.6045 79.3427 22.055 79.0631L26.9306 75.5418C32.0606 71.8415 38.1573 69.7155 44.4759 69.4234C50.7944 69.1314 57.0612 70.686 62.5107 73.8973L81.007 84.7706C83.4871 86.249 85.2816 88.6486 85.9987 91.4455C86.3471 92.7876 86.4239 94.1858 86.2246 95.5579C86.0252 96.9301 85.5537 98.2486 84.8378 99.4361C83.9029 101.001 82.5804 102.299 80.9977 103.204C79.4149 104.109 77.6256 104.59 75.8025 104.602V104.602Z" fill="#006635"/>
<path d="M60.8136 125.882C56.3346 125.882 51.8986 125.007 47.754 123.309L23.0086 113.152C22.0593 112.762 21.3037 112.011 20.9083 111.064C20.5128 110.117 20.5097 109.051 20.8996 108.102C21.2896 107.153 22.0408 106.397 22.9878 106.002C23.9348 105.606 25 105.603 25.9493 105.993L50.6562 116.093C54.2556 117.575 58.1368 118.248 62.0251 118.064C65.9134 117.88 69.7138 116.844 73.1574 115.028L119.379 90.7859C119.847 90.5437 120.251 90.1938 120.558 89.7649C120.864 89.336 121.064 88.8404 121.142 88.3189C121.219 87.7974 121.172 87.2651 121.003 86.7656C120.834 86.2661 120.55 85.8138 120.172 85.4459L119.804 85.0977C119.3 84.6083 118.654 84.2921 117.958 84.1947C117.262 84.0973 116.554 84.2238 115.935 84.556L80.5288 103.517C80.0797 103.787 79.5805 103.962 79.0614 104.034C78.5424 104.105 78.0143 104.07 77.5092 103.931C77.004 103.792 76.5323 103.552 76.1227 103.225C75.7131 102.899 75.3741 102.492 75.1263 102.031C74.8784 101.569 74.7268 101.062 74.6808 100.54C74.6348 100.018 74.6953 99.4923 74.8585 98.9944C75.0218 98.4966 75.2844 98.037 75.6305 97.6437C75.9766 97.2504 76.399 96.9314 76.8721 96.7062L112.297 77.7263C114.371 76.6078 116.748 76.1828 119.081 76.5135C121.414 76.8443 123.579 77.9134 125.26 79.5643L125.609 79.9126C126.863 81.1327 127.81 82.633 128.372 84.2901C128.934 85.9472 129.095 87.714 128.842 89.4455C128.589 91.1769 127.929 92.8237 126.917 94.2507C125.904 95.6777 124.567 96.844 123.016 97.6542L76.7947 121.877C71.8735 124.494 66.3874 125.869 60.8136 125.882Z" fill="#006635"/>
<path d="M77.7422 89.4143C76.8776 89.4137 76.0381 89.1236 75.3576 88.5902C74.677 88.0569 74.1947 87.311 73.9876 86.4715C73.7805 85.632 73.8606 84.7474 74.215 83.9587C74.5693 83.17 75.1777 82.5228 75.9429 82.1202L95.9482 71.5758C101.501 68.3834 106.628 67.5128 111.039 69.0606C112.751 69.6662 114.32 70.6153 115.651 71.8497C116.982 73.0841 118.046 74.5777 118.778 76.2386C118.966 76.7112 119.06 77.216 119.052 77.7246C119.045 78.2332 118.938 78.7354 118.737 79.2025C118.536 79.6696 118.244 80.0926 117.88 80.4471C117.515 80.8017 117.084 81.0809 116.612 81.2689C116.139 81.4569 115.634 81.55 115.125 81.5429C114.617 81.5357 114.115 81.4284 113.648 81.2272C113.18 81.026 112.758 80.7348 112.403 80.3701C112.048 80.0055 111.769 79.5746 111.581 79.102C110.939 77.8191 109.832 76.8295 108.486 76.3353C106.299 75.6194 103.281 76.3353 99.721 78.3668L79.677 88.9692C79.0818 89.2832 78.4149 89.4367 77.7422 89.4143Z" fill="#006635"/>
<path d="M34.9035 76.3725C34.3904 76.3725 33.8983 76.1687 33.5355 75.8059C33.1726 75.443 32.9688 74.9508 32.9688 74.4377V39.1672C32.9688 38.654 33.1726 38.162 33.5355 37.7991C33.8983 37.4363 34.3904 37.2324 34.9035 37.2324C35.4166 37.2324 35.9087 37.4363 36.2716 37.7991C36.6344 38.162 36.8383 38.654 36.8383 39.1672V74.4377C36.8383 74.9508 36.6344 75.443 36.2716 75.8059C35.9087 76.1687 35.4166 76.3725 34.9035 76.3725Z" fill="#006635"/>
<path d="M107.224 72.7352C106.711 72.7352 106.219 72.5314 105.856 72.1685C105.493 71.8057 105.289 71.3136 105.289 70.8005V39.1672C105.289 38.654 105.493 38.162 105.856 37.7991C106.219 37.4363 106.711 37.2324 107.224 37.2324C107.737 37.2324 108.229 37.4363 108.592 37.7991C108.955 38.162 109.159 38.654 109.159 39.1672V70.8005C109.159 71.3136 108.955 71.8057 108.592 72.1685C108.229 72.5314 107.737 72.7352 107.224 72.7352Z" fill="#006635"/>
<path d="M112.561 42.0699H81.6053C80.8356 42.0699 80.0974 41.7641 79.5531 41.2199C79.0089 40.6756 78.7031 39.9374 78.7031 39.1677C78.7031 38.398 79.0089 37.6599 79.5531 37.1156C80.0974 36.5714 80.8356 36.2656 81.6053 36.2656H109.601V22.9351H82.5145C81.7448 22.9351 81.0068 22.6294 80.4625 22.0851C79.9183 21.5409 79.6124 20.8027 79.6124 20.033C79.6124 19.2633 79.9183 18.5252 80.4625 17.981C81.0068 17.4367 81.7448 17.1309 82.5145 17.1309H112.561C113.331 17.1309 114.069 17.4367 114.613 17.981C115.158 18.5252 115.463 19.2633 115.463 20.033V39.1677C115.463 39.9374 115.158 40.6756 114.613 41.2199C114.069 41.7641 113.331 42.0699 112.561 42.0699V42.0699Z" fill="#006635"/>
<path d="M62.0683 42.0699H29.3709C28.6012 42.0699 27.863 41.7641 27.3187 41.2199C26.7745 40.6756 26.4688 39.9374 26.4688 39.1677V20.033C26.4688 19.2633 26.7745 18.5252 27.3187 17.981C27.863 17.4367 28.6012 17.1309 29.3709 17.1309H61.7974C62.5671 17.1309 63.3053 17.4367 63.8495 17.981C64.3938 18.5252 64.6995 19.2633 64.6995 20.033C64.6995 20.8027 64.3938 21.5409 63.8495 22.0851C63.3053 22.6294 62.5671 22.9351 61.7974 22.9351H32.2536V36.2656H62.0683C62.838 36.2656 63.576 36.5714 64.1203 37.1156C64.6645 37.6599 64.9704 38.398 64.9704 39.1677C64.9704 39.9374 64.6645 40.6756 64.1203 41.2199C63.576 41.7641 62.838 42.0699 62.0683 42.0699V42.0699Z" fill="#006635"/>
<path d="M81.2004 86.8395C80.4307 86.8395 79.6927 86.5338 79.1484 85.9896C78.6041 85.4453 78.2983 84.7071 78.2983 83.9374V19.4714C78.346 18.6047 78.2166 17.7373 77.9178 16.9223C77.619 16.1073 77.1572 15.3618 76.5605 14.7313C75.9638 14.1009 75.2449 13.5988 74.4475 13.2556C73.6502 12.9124 72.7913 12.7354 71.9233 12.7354C71.0553 12.7354 70.1964 12.9124 69.399 13.2556C68.6017 13.5988 67.8828 14.1009 67.2861 14.7313C66.6894 15.3618 66.2276 16.1073 65.9288 16.9223C65.63 17.7373 65.5005 18.6047 65.5483 19.4714V76.6821C65.5483 77.4518 65.2426 78.19 64.6983 78.7342C64.1541 79.2785 63.4159 79.5842 62.6462 79.5842C61.8765 79.5842 61.1383 79.2785 60.594 78.7342C60.0498 78.19 59.7441 77.4518 59.7441 76.6821V19.4714C59.6787 17.8311 59.9452 16.1946 60.5278 14.6599C61.1104 13.1252 61.9971 11.724 63.1345 10.5404C64.2719 9.35674 65.6366 8.41508 67.1469 7.77181C68.6571 7.12854 70.2817 6.79687 71.9233 6.79688C73.5648 6.79687 75.1895 7.12854 76.6997 7.77181C78.21 8.41508 79.5748 9.35674 80.7122 10.5404C81.8496 11.724 82.7362 13.1252 83.3188 14.6599C83.9014 16.1946 84.1679 17.8311 84.1025 19.4714V83.8601C84.1129 84.2476 84.0455 84.6333 83.9043 84.9944C83.7631 85.3555 83.5509 85.6847 83.2804 85.9624C83.0099 86.2401 82.6865 86.4607 82.3292 86.6114C81.972 86.7621 81.5881 86.8397 81.2004 86.8395V86.8395Z" fill="#006635"/>
<path d="M107.225 20.6131C106.712 20.6131 106.22 20.4092 105.857 20.0464C105.494 19.6836 105.291 19.1915 105.291 18.6783C105.291 18.0979 105.116 4.70935 94.0303 4.70935C82.1509 4.70935 77.5655 11.7906 77.3721 12.1001C77.2361 12.3148 77.0593 12.5006 76.8515 12.647C76.6438 12.7933 76.4092 12.8974 76.1613 12.9531C75.9134 13.0088 75.6569 13.0151 75.4065 12.9716C75.1561 12.9282 74.9168 12.8359 74.7021 12.6999C74.2706 12.4287 73.9635 11.9982 73.8476 11.5019C73.7317 11.0056 73.8162 10.4836 74.083 10.0493C74.3151 9.68169 79.8872 0.839844 94.0303 0.839844C106.006 0.839844 109.16 12.4484 109.16 18.659C109.16 19.1721 108.956 19.6642 108.593 20.027C108.231 20.3899 107.738 20.5937 107.225 20.5937V20.6131Z" fill="#006635"/>
<path d="M34.9035 20.6133C34.3904 20.6133 33.8983 20.4094 33.5355 20.0466C33.1726 19.6837 32.9688 19.1916 32.9688 18.6785C32.9688 12.526 36.1224 0.859375 48.0985 0.859375C62.2223 0.859375 67.8137 9.70122 68.0459 10.0688C68.1801 10.2858 68.2701 10.5272 68.3106 10.7791C68.3512 11.031 68.3416 11.2885 68.2823 11.5367C68.2229 11.7848 68.115 12.0188 67.9648 12.2251C67.8147 12.4314 67.6252 12.606 67.4074 12.7388C66.9707 13.0038 66.4471 13.0854 65.9505 12.9658C65.454 12.8462 65.0248 12.535 64.7568 12.1003C64.5633 11.7907 59.9586 4.72888 48.0985 4.72888C37.0124 4.72888 36.8383 18.1173 36.8383 18.6978C36.8332 19.2075 36.6271 19.6947 36.2648 20.0534C35.9025 20.4121 35.4133 20.6133 34.9035 20.6133Z" fill="#006635"/>
<path d="M13.3853 16.2218C14.3182 15.8727 15.3464 15.8768 16.2765 16.2331C17.2065 16.5894 17.9742 17.2735 18.435 18.1565C19.6896 19.4467 20.8594 20.8168 21.9369 22.2582C21.9736 22.2976 21.9941 22.3495 21.9941 22.4033C21.9941 22.4572 21.9736 22.5091 21.9369 22.5485C20.1283 22.1022 18.3761 21.4532 16.7132 20.6137C15.9006 20.2461 14.8944 20.1686 14.3527 19.4334C13.6658 18.609 13.2652 17.5837 13.2113 16.5119C13.2081 16.4391 13.2291 16.3674 13.2711 16.3079C13.3131 16.2483 13.3738 16.2044 13.4434 16.183L13.3853 16.2218Z" fill="#006635"/>
<path d="M10.5859 29.339C10.991 28.4311 11.715 27.7034 12.6206 27.2933C13.5262 26.8833 14.5508 26.8195 15.5003 27.1141C17.3013 27.1371 19.0985 27.2857 20.8788 27.559C20.9045 27.5636 20.929 27.5733 20.9508 27.5876C20.9726 27.6019 20.9912 27.6205 21.0057 27.6422C21.0201 27.6639 21.03 27.6882 21.0348 27.7139C21.0396 27.7395 21.0393 27.7658 21.0337 27.7912C19.4568 28.7628 17.7759 29.5546 16.0226 30.1517C15.1906 30.4612 14.4361 31.119 13.5268 30.9836C12.4601 30.8902 11.4539 30.4482 10.6634 29.726C10.6194 29.6711 10.5955 29.6029 10.5955 29.5325C10.5955 29.4622 10.6194 29.3939 10.6634 29.339H10.5859Z" fill="#006635"/>
<path d="M13.2314 41.1989C13.1857 40.2055 13.5079 39.2302 14.136 38.4592C14.7642 37.6883 15.6544 37.1758 16.6365 37.0198C18.262 36.2643 19.9361 35.6179 21.6476 35.0851C21.673 35.0762 21.6999 35.0727 21.7267 35.0748C21.7535 35.0769 21.7796 35.0846 21.8032 35.0974C21.8269 35.1101 21.8477 35.1277 21.8642 35.1489C21.8807 35.1701 21.8926 35.1945 21.8991 35.2205C20.9135 36.7929 19.7586 38.2527 18.4552 39.5737C17.8554 40.2122 17.4491 41.1409 16.5205 41.5085C15.5185 41.8949 14.4177 41.9424 13.3862 41.6439C13.3198 41.6259 13.262 41.5849 13.223 41.5282C13.184 41.4715 13.1664 41.4028 13.1734 41.3343L13.2314 41.1989Z" fill="#006635"/>
<path d="M128.139 16.5502C128.154 17.5428 127.806 18.5068 127.162 19.2617C126.517 20.0167 125.62 20.5108 124.637 20.6519C123.001 21.4138 121.314 22.0603 119.587 22.5866C119.534 22.5984 119.477 22.5888 119.431 22.5599C119.384 22.5311 119.35 22.4853 119.336 22.4319C120.356 20.8869 121.537 19.4537 122.857 18.1561C123.476 17.5176 123.902 16.6083 124.792 16.3374C125.809 15.9995 126.909 15.9995 127.926 16.3374C127.994 16.3614 128.053 16.406 128.095 16.4649C128.136 16.5239 128.159 16.5942 128.158 16.6663L128.139 16.5502Z" fill="#006635"/>
<path d="M130.653 29.7264C129.964 30.4432 129.036 30.8825 128.044 30.9609C127.053 31.0394 126.068 30.7516 125.274 30.1521C123.586 29.5257 121.944 28.7822 120.36 27.9271C120.325 27.8909 120.305 27.8423 120.305 27.7917C120.305 27.741 120.325 27.6924 120.36 27.6562C122.174 27.2808 124.022 27.0993 125.874 27.1146C126.764 27.1146 127.712 26.7469 128.505 27.1146C129.479 27.5729 130.28 28.3327 130.788 29.2815C130.829 29.3377 130.851 29.4054 130.851 29.4749C130.851 29.5444 130.829 29.6122 130.788 29.6684L130.653 29.7264Z" fill="#006635"/>
<path d="M127.848 41.5095C126.921 41.852 125.9 41.8445 124.978 41.4884C124.055 41.1322 123.294 40.4518 122.837 39.5747C121.608 38.2616 120.47 36.8652 119.432 35.3956C119.395 35.3562 119.375 35.3045 119.375 35.2506C119.375 35.1967 119.395 35.1449 119.432 35.1055C121.228 35.5521 122.968 36.2012 124.617 37.0402C125.43 37.4272 126.417 37.5238 126.958 38.2784C127.625 39.1176 128.004 40.1483 128.042 41.2192C128.044 41.2895 128.022 41.3585 127.98 41.4148C127.938 41.4711 127.878 41.5113 127.81 41.5289L127.848 41.5095Z" fill="#006635"/>
</svg>
