<svg width="117" height="121" viewBox="0 0 117 121" fill="none" xmlns="http://www.w3.org/2000/svg">
<g clip-path="url(#clip0_181_2195)">
<path d="M71.0221 46.1118H21.4893C21.0363 46.1118 20.6019 45.9306 20.2815 45.608C19.9612 45.2855 19.7812 44.848 19.7812 44.3918C19.7812 43.9357 19.9612 43.4982 20.2815 43.1757C20.6019 42.8531 21.0363 42.6719 21.4893 42.6719H71.0221C71.4751 42.6719 71.9095 42.8531 72.2299 43.1757C72.5502 43.4982 72.7302 43.9357 72.7302 44.3918C72.7302 44.848 72.5502 45.2855 72.2299 45.608C71.9095 45.9306 71.4751 46.1118 71.0221 46.1118Z" fill="#006635"/>
<path d="M71.0221 56.6216H21.4893C21.0363 56.6216 20.6019 56.4403 20.2815 56.1178C19.9612 55.7952 19.7812 55.3578 19.7812 54.9016C19.7812 54.4454 19.9612 54.008 20.2815 53.6854C20.6019 53.3629 21.0363 53.1816 21.4893 53.1816H71.0221C71.4751 53.1816 71.9095 53.3629 72.2299 53.6854C72.5502 54.008 72.7302 54.4454 72.7302 54.9016C72.7302 55.3578 72.5502 55.7952 72.2299 56.1178C71.9095 56.4403 71.4751 56.6216 71.0221 56.6216Z" fill="#006635"/>
<path d="M71.0221 67.1997H21.4893C21.0363 67.1997 20.6019 67.0185 20.2815 66.6959C19.9612 66.3734 19.7812 65.9359 19.7812 65.4797C19.7812 65.0236 19.9612 64.586 20.2815 64.2635C20.6019 63.9409 21.0363 63.7598 21.4893 63.7598H71.0221C71.4751 63.7598 71.9095 63.9409 72.2299 64.2635C72.5502 64.586 72.7302 65.0236 72.7302 65.4797C72.7302 65.9359 72.5502 66.3734 72.2299 66.6959C71.9095 67.0185 71.4751 67.1997 71.0221 67.1997Z" fill="#006635"/>
<path d="M59.51 77.9653H21.4893C21.0363 77.9653 20.6019 77.7842 20.2815 77.4616C19.9612 77.1391 19.7812 76.7015 19.7812 76.2454C19.7812 75.7892 19.9612 75.3517 20.2815 75.0292C20.6019 74.7066 21.0363 74.5254 21.4893 74.5254H59.51C59.963 74.5254 60.3974 74.7066 60.7178 75.0292C61.0381 75.3517 61.2181 75.7892 61.2181 76.2454C61.2181 76.7015 61.0381 77.1391 60.7178 77.4616C60.3974 77.7842 59.963 77.9653 59.51 77.9653Z" fill="#006635"/>
<path d="M52.1142 88.5103H21.4893C21.0363 88.5103 20.6019 88.3291 20.2815 88.0066C19.9612 87.684 19.7812 87.2465 19.7812 86.7903C19.7812 86.3341 19.9612 85.8967 20.2815 85.5741C20.6019 85.2515 21.0363 85.0703 21.4893 85.0703H52.1142C52.5672 85.0703 53.0016 85.2515 53.322 85.5741C53.6423 85.8967 53.8223 86.3341 53.8223 86.7903C53.8223 87.2465 53.6423 87.684 53.322 88.0066C53.0016 88.3291 52.5672 88.5103 52.1142 88.5103Z" fill="#006635"/>
<path d="M52.1142 99.0532H21.4893C21.0363 99.0532 20.6019 98.8721 20.2815 98.5495C19.9612 98.227 19.7812 97.7894 19.7812 97.3333C19.7812 96.8771 19.9612 96.4396 20.2815 96.1171C20.6019 95.7945 21.0363 95.6133 21.4893 95.6133H52.1142C52.5672 95.6133 53.0016 95.7945 53.322 96.1171C53.6423 96.4396 53.8223 96.8771 53.8223 97.3333C53.8223 97.7894 53.6423 98.227 53.322 98.5495C53.0016 98.8721 52.5672 99.0532 52.1142 99.0532Z" fill="#006635"/>
<path d="M85.7943 121H6.83212C5.02013 121 3.28235 120.275 2.00108 118.985C0.719805 117.695 0 115.945 0 114.12V6.87989C0 5.05523 0.719805 3.3053 2.00108 2.01507C3.28235 0.724838 5.02013 0 6.83212 0H85.7943C87.6063 0 89.344 0.724838 90.6253 2.01507C91.9066 3.3053 92.6264 5.05523 92.6264 6.87989V55.6927C92.6264 56.605 92.2665 57.4799 91.6259 58.125C90.9853 58.7702 90.1163 59.1326 89.2103 59.1326C88.3043 59.1326 87.4355 58.7702 86.7949 58.125C86.1542 57.4799 85.7943 56.605 85.7943 55.6927V6.87989H6.83212V114.12H85.7943V90.5221C85.7943 89.6098 86.1542 88.7348 86.7949 88.0897C87.4355 87.4445 88.3043 87.0822 89.2103 87.0822C90.1163 87.0822 90.9853 87.4445 91.6259 88.0897C92.2665 88.7348 92.6264 89.6098 92.6264 90.5221V114.12C92.6264 115.945 91.9066 117.695 90.6253 118.985C89.344 120.275 87.6063 121 85.7943 121Z" fill="#006635"/>
<path d="M61.7938 110.784C61.0048 110.786 60.224 110.624 59.5008 110.306C58.7776 109.989 58.1278 109.523 57.5929 108.939C57.058 108.356 56.6496 107.666 56.3936 106.914C56.1376 106.163 56.0397 105.366 56.1061 104.574L57.0626 93.2742C57.385 89.7321 58.8141 86.3841 61.1447 83.7112L94.3659 45.4074C96.2051 43.2836 98.7915 41.962 101.58 41.7214C104.368 41.4807 107.14 42.3398 109.311 44.1174L111.293 45.7342L113.291 47.4542C115.408 49.3014 116.725 51.907 116.965 54.7172C117.204 57.5275 116.345 60.3209 114.572 62.5039L82.7855 102.063C80.5661 104.82 77.543 106.805 74.1429 107.739L63.3139 110.594C62.8195 110.734 62.307 110.798 61.7938 110.784ZM102.496 48.5722C101.931 48.5729 101.372 48.6944 100.857 48.9286C100.342 49.1628 99.8815 49.5045 99.5071 49.9309L66.2859 88.2347C64.9105 89.8197 64.0624 91.7984 63.8605 93.8934L63.0577 103.543L72.3665 101.083C74.3935 100.512 76.188 99.3078 77.4905 97.6429L109.294 58.0836C109.945 57.2791 110.26 56.2508 110.17 55.2168C110.081 54.1828 109.595 53.2245 108.816 52.5453L106.903 50.8253L105.024 49.2945C104.287 48.7712 103.396 48.5164 102.496 48.5722Z" fill="#006635"/>
<path d="M105.9 69.6065C105.499 69.6024 105.112 69.4563 104.807 69.1937L89.5371 56.2595C89.3655 56.1138 89.2241 55.9355 89.1209 55.7348C89.0177 55.5341 88.9549 55.3149 88.9358 55.0897C88.9168 54.8645 88.942 54.6377 89.01 54.4224C89.078 54.207 89.1874 54.0072 89.3321 53.8344C89.4768 53.6616 89.6538 53.5192 89.8531 53.4153C90.0525 53.3114 90.2702 53.248 90.4939 53.2288C90.7175 53.2097 90.9427 53.2351 91.1566 53.3036C91.3705 53.3721 91.5689 53.4823 91.7405 53.628L107.01 66.5622C107.182 66.7078 107.324 66.8861 107.427 67.0868C107.53 67.2875 107.593 67.5067 107.612 67.732C107.631 67.9572 107.606 68.184 107.538 68.3994C107.47 68.6148 107.36 68.8146 107.215 68.9873C107.055 69.1815 106.854 69.3376 106.626 69.4446C106.399 69.5516 106.151 69.6069 105.9 69.6065Z" fill="#006635"/>
<path d="M23.2105 32.5428C22.047 32.2437 20.9355 31.7682 19.9141 31.1324L21.6221 27.8645C23.3138 28.9777 25.2889 29.575 27.3098 29.5845C29.2057 29.5845 30.1622 29.12 30.1622 28.1569C30.1595 27.9037 30.0837 27.6567 29.9443 27.4461C29.8048 27.2354 29.6075 27.07 29.3765 26.9701C28.5717 26.5742 27.7308 26.2575 26.8657 26.0241C25.8574 25.7449 24.87 25.3942 23.9108 24.9749C23.1254 24.629 22.4342 24.0982 21.8953 23.4269C21.3062 22.669 21.009 21.7222 21.0584 20.761C21.0386 19.7055 21.3625 18.6725 21.9807 17.8198C22.6557 16.9329 23.5684 16.2585 24.6111 15.8762C25.8755 15.3913 27.2211 15.1576 28.5737 15.1882C29.8048 15.1811 31.0305 15.355 32.2118 15.7043C33.2203 15.97 34.1626 16.4444 34.9788 17.0975L33.2708 20.3653C32.548 19.8395 31.7466 19.433 30.8967 19.1613C30.0945 18.8812 29.252 18.7359 28.4029 18.7314C27.6724 18.6955 26.9446 18.8433 26.285 19.1613C26.0487 19.2579 25.8464 19.4232 25.704 19.6362C25.5616 19.8491 25.4855 20.1 25.4855 20.3567C25.4855 20.6135 25.5616 20.8645 25.704 21.0774C25.8464 21.2904 26.0487 21.4556 26.285 21.5521C27.0971 21.9357 27.9435 22.241 28.8128 22.4638C29.8198 22.7402 30.8071 23.0849 31.7678 23.4957C32.5524 23.8349 33.2438 24.3601 33.7833 25.0265C34.3663 25.7611 34.6638 26.6843 34.6202 27.6237C34.6542 28.4157 34.4907 29.2036 34.1446 29.9157C33.7985 30.6277 33.2808 31.2412 32.6388 31.7C30.9688 32.7469 29.0173 33.2457 27.0536 33.1276C25.7535 33.0934 24.4626 32.8969 23.2105 32.5428Z" fill="#006635"/>
<path d="M27.1228 33.9007C25.7334 33.9058 24.3494 33.7266 23.0065 33.3675C21.7487 33.06 20.5488 32.5488 19.4537 31.8539L18.8047 31.4239L21.2643 26.6253L22.05 27.124C23.6181 28.1232 25.4379 28.6485 27.2935 28.6376C28.2159 28.6376 29.292 28.5001 29.292 28.0701C29.292 28.0701 29.292 27.8293 28.9504 27.6401C28.1979 27.278 27.4148 26.9844 26.6104 26.7629C25.5671 26.475 24.5453 26.1129 23.553 25.6793C22.6555 25.2972 21.8598 24.708 21.2301 23.9593C20.5065 23.0501 20.1362 21.9069 20.1882 20.743C20.1696 19.5069 20.5536 18.2987 21.2814 17.3031C22.0467 16.2831 23.0829 15.502 24.2704 15.0499C26.9043 14.1231 29.7613 14.0568 32.4347 14.8606C33.5575 15.1587 34.6051 15.6921 35.5092 16.4258L36.0217 16.8731L33.6304 21.6373L32.8276 21.0526C32.1779 20.5749 31.4573 20.2034 30.6926 19.9518C29.4201 19.4746 28.0196 19.4746 26.7471 19.9518C26.4055 20.141 26.4054 20.2958 26.4054 20.399C26.4054 20.5022 26.4055 20.657 26.7471 20.8462C27.5068 21.1959 28.2954 21.4779 29.104 21.689C30.1593 21.967 31.1928 22.3234 32.1957 22.7553C33.0812 23.1497 33.8687 23.7372 34.5015 24.4753C35.2173 25.3687 35.5875 26.493 35.5434 27.6401C35.5817 28.5663 35.3892 29.4874 34.9834 30.3196C34.5777 31.1517 33.9717 31.8684 33.2205 32.4043C31.3933 33.533 29.2607 34.0564 27.1228 33.9007ZM23.4335 31.7164C24.6391 32.0261 25.8785 32.1821 27.1228 32.1807C28.9206 32.3025 30.7115 31.8577 32.2469 30.908C32.8046 30.5343 33.2557 30.0203 33.5553 29.4169C33.8549 28.8135 33.9927 28.1416 33.9549 27.468C33.9976 26.7284 33.7663 25.9991 33.3058 25.4213C32.845 24.8622 32.2598 24.4203 31.5978 24.1313C30.6714 23.7319 29.7183 23.3986 28.7454 23.1338C27.8216 22.897 26.9233 22.5686 26.0638 22.1534C25.6864 21.9859 25.3658 21.7112 25.1413 21.3629C24.9168 21.0146 24.7981 20.6078 24.7999 20.1926C24.8026 19.7849 24.9194 19.3863 25.1369 19.0425C25.3545 18.6988 25.6639 18.4237 26.0296 18.249C27.7273 17.5549 29.6269 17.5549 31.3246 18.249C31.9196 18.4523 32.4921 18.7175 33.0326 19.0402L33.9207 17.3203C33.3233 16.9588 32.6797 16.681 32.0077 16.4946C29.7059 15.7949 27.2437 15.8431 24.9706 16.6322C24.0675 16.9784 23.28 17.5747 22.6989 18.3522C22.195 19.0577 21.9314 19.9084 21.9475 20.7773C21.8958 21.5392 22.1271 22.2932 22.5965 22.893C23.0535 23.4646 23.6389 23.9185 24.3045 24.2173C25.226 24.6143 26.1734 24.9476 27.1399 25.2149C28.0579 25.4675 28.9501 25.8074 29.8044 26.2297C30.1709 26.4052 30.4816 26.68 30.7018 27.0232C30.922 27.3665 31.043 27.7647 31.0512 28.1733C31.0512 29.2225 30.4022 30.4608 27.3448 30.4608C25.4833 30.4735 23.6472 30.0246 21.9987 29.1537L21.0935 30.8736C21.858 31.2579 22.6591 31.5633 23.4847 31.7852L23.4335 31.7164Z" fill="#006635"/>
<path d="M41.1135 32.043C39.8456 31.3964 38.803 30.3765 38.1244 29.119C37.3971 27.7318 37.0327 26.181 37.0654 24.6127C37.0251 22.8746 37.4 21.1521 38.1586 19.5903C38.8353 18.1923 39.912 17.0303 41.2501 16.2537C42.6575 15.4423 44.2575 15.0321 45.8788 15.0669C47.4653 15.0314 49.0364 15.3856 50.4563 16.0988C51.7243 16.7454 52.7668 17.7653 53.4454 19.0228C54.1727 20.41 54.5372 21.9608 54.5045 23.5291C54.5448 25.2672 54.1699 26.9896 53.4113 28.5514C52.7346 29.9494 51.6579 31.1115 50.3198 31.8881C48.9124 32.6995 47.3123 33.1097 45.691 33.0749C44.1045 33.1104 42.5334 32.7562 41.1135 32.043ZM48.7825 27.9322C49.6223 26.6251 50.0289 25.0836 49.9439 23.5291C50.019 22.2324 49.6448 20.9497 48.885 19.9C48.5282 19.4703 48.077 19.13 47.5672 18.9062C47.0573 18.6823 46.5027 18.5809 45.9472 18.61C45.3291 18.5856 44.715 18.7195 44.1624 18.9993C43.6097 19.279 43.1366 19.6955 42.7873 20.2096C41.9475 21.5167 41.5409 23.0582 41.6259 24.6127C41.5472 25.9072 41.9153 27.1892 42.6677 28.2418C43.0298 28.6742 43.4868 29.0159 44.0026 29.2397C44.5185 29.4636 45.079 29.5636 45.6398 29.5318C46.2571 29.5514 46.8695 29.4154 47.4213 29.136C47.9732 28.8567 48.447 28.4429 48.7996 27.9322H48.7825Z" fill="#006635"/>
<path d="M45.7067 33.9352C43.9849 33.9684 42.2804 33.585 40.7363 32.8172C39.2956 32.0928 38.1052 30.948 37.3203 29.5321C36.5251 28.0181 36.1253 26.3254 36.1587 24.613C36.1205 22.7441 36.5245 20.8929 37.3373 19.2123C38.0938 17.6708 39.2811 16.3854 40.7533 15.5143C42.3132 14.6217 44.0836 14.1701 45.8774 14.2072C47.5992 14.174 49.3038 14.5573 50.8478 15.3251C52.2885 16.0495 53.479 17.1944 54.2639 18.6103C55.0612 20.1235 55.4611 21.8168 55.4253 23.5294C55.4635 25.3983 55.0595 27.2495 54.2468 28.9301C53.4944 30.4745 52.3061 31.7609 50.8307 32.628C49.2708 33.5206 47.5004 33.9723 45.7067 33.9352ZM45.8945 15.9272C44.4244 15.8976 42.9734 16.2658 41.6928 16.9935C40.4991 17.6965 39.5368 18.7371 38.9257 19.9863C38.244 21.4304 37.905 23.0143 37.9351 24.613C37.9037 26.0296 38.2268 27.4314 38.8745 28.6893C39.4752 29.8053 40.3984 30.711 41.522 31.2865C42.8216 31.9327 44.2577 32.2514 45.7067 32.2152C47.1768 32.2448 48.6279 31.8766 49.9084 31.1489C51.106 30.4508 52.0694 29.4088 52.6754 28.1561C53.3572 26.712 53.6962 25.1281 53.666 23.5294C53.6938 22.1077 53.371 20.7012 52.7266 19.4359C52.1187 18.3237 51.1895 17.424 50.0621 16.8559C48.7692 16.2078 47.3382 15.8889 45.8945 15.9272ZM45.6554 30.3921C44.9696 30.4293 44.2848 30.3039 43.656 30.0261C43.0271 29.7483 42.4716 29.3258 42.0343 28.7925C41.1465 27.5889 40.7054 26.1101 40.7875 24.613C40.7001 22.8801 41.1606 21.1638 42.1027 19.711C42.5327 19.0859 43.111 18.5791 43.7852 18.2366C44.4594 17.8941 45.2081 17.727 45.9629 17.7503C46.6467 17.7219 47.3278 17.853 47.9529 18.1335C48.5781 18.414 49.1304 18.8362 49.5668 19.3671C50.4496 20.5668 50.8903 22.0383 50.8136 23.5294C50.896 25.2642 50.4296 26.9805 49.4814 28.4313C49.0547 29.0515 48.4817 29.5553 47.814 29.8975C47.1462 30.2397 46.4044 30.4097 45.6554 30.3921ZM45.9629 19.4703C45.4802 19.4515 45.0004 19.555 44.5677 19.7714C44.135 19.9877 43.7632 20.31 43.4862 20.7086C42.7644 21.8762 42.4183 23.2398 42.4956 24.613C42.4199 25.713 42.7213 26.8058 43.3496 27.7089C43.6346 28.037 43.9909 28.2946 44.3908 28.4616C44.7907 28.6287 45.2234 28.7007 45.6554 28.6721C46.1355 28.6929 46.6128 28.5882 47.0408 28.3682C47.4689 28.1482 47.833 27.8203 48.0979 27.4166C48.8329 26.2605 49.1856 24.8998 49.1056 23.5294C49.1794 22.4324 48.8714 21.3437 48.2345 20.4506C47.959 20.1189 47.6097 19.8574 47.215 19.6871C46.8204 19.5167 46.3914 19.4425 45.9629 19.4703Z" fill="#006635"/>
<path d="M59.2887 32.5428C58.123 32.2503 57.0104 31.7743 55.9922 31.1324L57.7002 27.8645C59.392 28.9777 61.367 29.575 63.3879 29.5845C65.3009 29.5845 66.2574 29.1201 66.2574 28.1569C66.249 27.9028 66.1691 27.6563 66.027 27.4462C65.8848 27.2361 65.6864 27.071 65.4546 26.9701C64.6547 26.5767 63.8197 26.26 62.9609 26.0241C61.9508 25.7508 60.963 25.4 60.006 24.9749C59.2207 24.629 58.5294 24.0982 57.9906 23.427C57.3967 22.6707 57.0935 21.7242 57.1365 20.761C57.1152 19.7026 57.4459 18.6673 58.0759 17.8198C58.7443 16.9334 59.6514 16.2589 60.6893 15.8763C61.9595 15.3912 63.3107 15.1575 64.6689 15.1882C65.8999 15.1835 67.1252 15.3574 68.307 15.7043C69.3089 15.9736 70.2451 16.4478 71.057 17.0975L69.349 20.3654C68.6249 19.8417 67.8237 19.4354 66.9748 19.1614C66.1723 18.8824 65.33 18.7372 64.481 18.7314C63.7504 18.6933 63.022 18.8412 62.3631 19.1614C62.1294 19.2575 61.9297 19.422 61.7896 19.6335C61.6496 19.8451 61.5757 20.0939 61.5774 20.3481C61.5768 20.6043 61.651 20.855 61.7907 21.069C61.9303 21.2831 62.1294 21.451 62.3631 21.5521C63.1764 21.9329 64.0225 22.2381 64.891 22.4638C65.9042 22.7378 66.8973 23.0826 67.8629 23.4957C68.6396 23.8401 69.3245 24.3647 69.8614 25.0265C70.4506 25.7586 70.7542 26.6821 70.7154 27.6237C70.7494 28.4157 70.5859 29.2036 70.2398 29.9157C69.8937 30.6277 69.376 31.2412 68.734 31.7C67.0574 32.7462 65.1007 33.2448 63.1317 33.1276C61.8315 33.0948 60.5405 32.8983 59.2887 32.5428Z" fill="#006635"/>
<path d="M63.1838 33.9007C61.7945 33.9036 60.4108 33.7244 59.0675 33.3675C57.8141 33.0629 56.6194 32.5515 55.5319 31.8539L54.8828 31.4239L57.3424 26.6253L58.1281 27.124C59.6943 28.1276 61.5154 28.6533 63.3718 28.6376C64.2941 28.6376 65.3701 28.5001 65.3701 28.0701C65.3701 28.0701 65.3701 27.8293 65.0114 27.6401C64.2602 27.275 63.4769 26.9813 62.6714 26.7629C61.629 26.4722 60.6075 26.1102 59.6141 25.6793C58.7218 25.2881 57.9279 24.7003 57.2911 23.9593C56.5744 23.0464 56.205 21.9059 56.2492 20.743C56.2292 19.5039 56.6199 18.2935 57.3595 17.3031C58.1201 16.2783 59.1579 15.4961 60.3485 15.0499C62.9824 14.1231 65.8395 14.0568 68.5129 14.8606C69.6342 15.1625 70.6812 15.6955 71.5874 16.4258L72.0998 16.8731L69.7085 21.6373L68.8887 21.0526C68.2389 20.5749 67.5184 20.2034 66.7536 19.9518C65.4871 19.4743 64.0918 19.4743 62.8252 19.9518C62.4836 20.141 62.4836 20.2958 62.4836 20.399C62.4836 20.5022 62.4836 20.657 62.8252 20.8462C63.5836 21.1991 64.3727 21.4812 65.1823 21.689C66.2321 21.9667 67.2597 22.3232 68.2567 22.7553C69.1473 23.1495 69.9404 23.7368 70.5796 24.4753C71.2887 25.3724 71.658 26.4941 71.6215 27.6401C71.661 28.5684 71.4674 29.4916 71.0583 30.3244C70.6493 31.1572 70.0381 31.8726 69.2815 32.4043C67.4544 33.533 65.3218 34.0564 63.1838 33.9007ZM59.4945 31.7164C60.7003 32.0251 61.9396 32.181 63.1838 32.1807C64.9811 32.2969 66.7704 31.8525 68.3079 30.908C68.8657 30.5343 69.3167 30.0203 69.6163 29.4169C69.9159 28.8135 70.0537 28.1416 70.0159 27.468C70.0507 26.7294 69.8203 26.0029 69.3669 25.4213C68.9074 24.8608 68.3219 24.4186 67.6588 24.1313C66.7324 23.7319 65.7793 23.3986 64.8065 23.1338C63.8773 22.8963 62.9734 22.568 62.1077 22.1534C61.7374 21.9813 61.4237 21.7059 61.2039 21.36C60.9841 21.014 60.8673 20.6119 60.8673 20.2012C60.8673 19.7905 60.9841 19.3883 61.2039 19.0423C61.4237 18.6964 61.7374 18.4211 62.1077 18.249C63.7993 17.5541 65.694 17.5541 67.3856 18.249C67.9803 18.4534 68.5526 18.7185 69.0936 19.0402L69.9818 17.3203C69.3828 16.9619 68.7397 16.6843 68.0689 16.4946C65.7613 15.7947 63.2936 15.8429 61.0147 16.6322C60.1178 16.9812 59.3365 17.5772 58.7601 18.3522C58.2432 19.052 57.9727 19.9054 57.9914 20.7773C57.9493 21.538 58.1796 22.2888 58.6405 22.893C59.1011 23.4609 59.6856 23.914 60.3485 24.2173C61.27 24.6143 62.2173 24.9476 63.1838 25.2149C64.1062 25.4711 65.0037 25.8108 65.8654 26.2297C66.2319 26.4052 66.5427 26.68 66.7629 27.0232C66.9831 27.3665 67.104 27.7647 67.1123 28.1733C67.1123 29.2225 66.4632 30.4608 63.4059 30.4608C61.5443 30.4735 59.7082 30.0246 58.0597 29.1537L57.1545 30.8736C57.9131 31.258 58.7086 31.5634 59.5287 31.7852L59.4945 31.7164Z" fill="#006635"/>
</g>
<defs>
<clipPath id="clip0_181_2195">
<rect width="117" height="121" fill="white"/>
</clipPath>
</defs>
</svg>
