<svg width="118" height="90" viewBox="0 0 118 90" fill="none" xmlns="http://www.w3.org/2000/svg">
<path d="M107.765 56.7395V19.2625H114.99V5.41552C114.99 3.09194 113.099 1.20117 110.775 1.20117H55.3879C53.0643 1.20117 51.1735 3.09171 51.1735 5.41552V19.2625H58.398V56.7395H47.5614V48.1606H52.9797V44.5484H4.81634V48.1606H10.2347V56.7395H0V60.3517H118V56.7395H107.765ZM27.0918 56.7395H13.847V48.1606H27.0918V56.7395ZM43.949 56.7395H30.7042V48.1606H43.949V56.7395ZM54.7856 15.6502V5.41552C54.7856 5.08918 55.0613 4.81354 55.3876 4.81354H64.4183V11.4361H68.0305V4.81354H81.2753V11.4361H84.8874V4.81354H98.1322V11.4361H101.744V4.81354H110.775C111.101 4.81354 111.377 5.08918 111.377 5.41552V15.6502H54.7856ZM92.1121 56.589H74.051V38.5279H81.2755V49.9667H84.8876V38.5279H92.1121V56.589ZM104.153 56.589H95.7245V38.5279H98.7347V34.9158H67.4285V38.5279H70.4386V56.589H62.0102V19.2625H104.153V56.589Z" fill="#FAA22C"/>
<path d="M84.2917 25.2852H71.0469V28.8973H84.2917V25.2852Z" fill="#FAA22C"/>
<path d="M92.707 25.2852H87.8906V28.8973H92.707V25.2852Z" fill="#FAA22C"/>
<path d="M24.0881 0C17.1167 0 11.4453 5.67138 11.4453 12.6428C11.4453 19.6143 17.1167 25.2857 24.0881 25.2857C31.0596 25.2857 36.731 19.6143 36.731 12.6428C36.731 5.67138 31.0596 0 24.0881 0ZM24.0881 21.6733C19.1086 21.6733 15.0574 17.6223 15.0574 12.6426C15.0574 7.66286 19.1084 3.61191 24.0881 3.61191C29.0679 3.61191 33.1188 7.66286 33.1188 12.6426C33.1188 17.6223 29.0676 21.6733 24.0881 21.6733Z" fill="#FAA22C"/>
<path d="M118 71.0391H0V74.6512H118V71.0391Z" fill="#FAA22C"/>
<path d="M118 85.4883H0V89.1004H118V85.4883Z" fill="#FAA22C"/>
</svg>
