<svg width="104" height="97" viewBox="0 0 104 97" fill="none" xmlns="http://www.w3.org/2000/svg">
<path d="M51.8815 96.5834C50.2624 96.5838 48.6809 96.0968 47.3436 95.1862C19.2388 76.0968 -0.245603 48.1361 0.00744117 27.2792C-0.0975945 22.981 0.910878 18.7285 2.93527 14.9331C4.95967 11.1377 7.93146 7.92797 11.5631 5.61435C25.6661 -3.54315 39.9884 -0.950766 50.8524 12.7687C50.9773 12.9262 51.1362 13.0534 51.3173 13.1409C51.4985 13.2284 51.6971 13.2737 51.8983 13.2736V13.2736C52.1024 13.2763 52.3044 13.2322 52.4887 13.1446C52.6729 13.057 52.8346 12.9284 52.9611 12.7687C63.8252 -0.950766 78.1306 -3.55998 92.2505 5.61435C95.1226 7.40504 97.5878 9.7752 99.4878 12.5727C101.388 15.3702 102.681 18.5333 103.283 21.8588C105.459 33.1542 100.905 47.5133 90.4791 62.2596C90.2235 62.6213 89.8989 62.9292 89.5239 63.1657C89.149 63.4021 88.7309 63.5625 88.2938 63.6375C87.8566 63.7126 87.4089 63.7008 86.9763 63.603C86.5436 63.5052 86.1346 63.3233 85.7725 63.0676C85.0451 62.5527 84.5516 61.7714 84.3999 60.8944C84.2482 60.0175 84.4505 59.1163 84.9628 58.3878C94.1905 45.2913 98.4585 32.4304 96.6534 23.0372C96.2101 20.6019 95.2605 18.2862 93.8658 16.2393C92.4712 14.1924 90.6624 12.4597 88.556 11.1526C74.4868 2.01197 64.3144 9.19989 58.1907 16.8424C57.4305 17.7983 56.4636 18.5704 55.3623 19.1009C54.261 19.6314 53.0538 19.9067 51.8309 19.9061V19.9061C50.6104 19.9066 49.4056 19.6312 48.3071 19.1006C47.2085 18.57 46.2447 17.7979 45.4879 16.8424C39.4317 9.19989 29.2594 2.01197 15.1226 11.1526C12.4345 12.8744 10.2426 15.2658 8.76347 18.0909C7.28429 20.916 6.56889 24.0772 6.68782 27.2624C6.50225 45.6952 25.2444 71.8716 51.1055 89.5469C51.3242 89.696 51.5829 89.7757 51.8477 89.7757C52.1126 89.7757 52.3713 89.696 52.59 89.5469C59.7541 84.7142 66.4369 79.2069 72.5468 73.1004C73.1789 72.4734 74.034 72.1214 74.9254 72.1214C75.8167 72.1214 76.6718 72.4734 77.304 73.1004C77.6177 73.4131 77.8665 73.7844 78.0363 74.1931C78.2061 74.6018 78.2935 75.04 78.2935 75.4824C78.2935 75.9248 78.2061 76.3629 78.0363 76.7716C77.8665 77.1804 77.6177 77.5516 77.304 77.8643C70.9049 84.3002 63.8998 90.1066 56.3857 95.203C55.0546 96.0985 53.4868 96.579 51.8815 96.5834V96.5834Z" fill="#006635"/>
<path d="M85.1313 47.7156C84.8872 47.7139 84.6461 47.6623 84.4227 47.564C84.0179 47.3742 83.7051 47.0318 83.5533 46.6119C83.4015 46.1921 83.4229 45.7292 83.613 45.3252C93.3974 24.3505 84.3553 18.3914 84.2709 18.3914C83.8936 18.161 83.6221 17.792 83.5148 17.3638C83.4075 16.9356 83.4731 16.4824 83.6973 16.102C83.8089 15.9059 83.9588 15.7343 84.1381 15.5972C84.3175 15.4601 84.5226 15.3603 84.7413 15.3038C84.96 15.2473 85.1878 15.2351 85.4113 15.2681C85.6348 15.3012 85.8493 15.3786 86.0422 15.496C86.5314 15.7821 97.8509 22.7681 86.717 46.7392C86.578 47.0394 86.3535 47.292 86.0715 47.4657C85.7895 47.6393 85.4625 47.7263 85.1313 47.7156Z" fill="#006635"/>
</svg>
