<svg width="129" height="135" viewBox="0 0 129 135" fill="none" xmlns="http://www.w3.org/2000/svg">
<path d="M64.4226 58.6304C60.8191 58.6304 57.2966 57.5618 54.3004 55.5598C51.3042 53.5578 48.969 50.7124 47.59 47.3832C46.211 44.054 45.8502 40.3907 46.5532 36.8564C47.2562 33.3222 48.9914 30.0758 51.5395 27.5278C54.0875 24.9797 57.3339 23.2445 60.8681 22.5415C64.4023 21.8385 68.0658 22.1993 71.395 23.5783C74.7241 24.9573 77.5696 27.2925 79.5715 30.2887C81.5735 33.2849 82.6421 36.8074 82.6421 40.4109C82.6365 45.2413 80.7151 49.8722 77.2995 53.2878C73.8839 56.7034 69.253 58.6248 64.4226 58.6304V58.6304ZM64.4226 26.4334C61.6581 26.4334 58.9557 27.2532 56.6571 28.7891C54.3586 30.3249 52.567 32.5079 51.5091 35.062C50.4511 37.616 50.1744 40.4264 50.7137 43.1378C51.253 45.8491 52.5842 48.3397 54.539 50.2945C56.4938 52.2492 58.9843 53.5805 61.6957 54.1198C64.4071 54.6591 67.2175 54.3823 69.7716 53.3244C72.3256 52.2665 74.5085 50.4749 76.0444 48.1764C77.5802 45.8778 78.4001 43.1754 78.4001 40.4109C78.3945 36.7056 76.92 33.1536 74.3 30.5335C71.6799 27.9135 68.1279 26.439 64.4226 26.4334V26.4334Z" fill="#006635"/>
<path d="M64.4151 134.244C28.3579 134.244 0 120.479 0 102.917C0 92.9267 8.9931 83.8276 24.6674 78.0372C25.7334 77.6462 26.911 77.6947 27.9412 78.1721C28.9714 78.6494 29.7699 79.5164 30.1608 80.5824C30.5518 81.6484 30.5033 82.826 30.026 83.8562C29.5486 84.8864 28.6816 85.6849 27.6156 86.0758C15.6319 90.5299 8.52651 96.8505 8.52651 103.044C8.52651 113.84 31.497 125.887 64.4576 125.887C97.4181 125.887 120.41 113.84 120.41 103.044C120.41 96.8718 113.22 90.5299 101.193 86.0758C100.647 85.9025 100.141 85.6202 99.7069 85.246C99.2726 84.8717 98.9186 84.4133 98.6664 83.8985C98.4141 83.3836 98.2689 82.823 98.2394 82.2504C98.2099 81.6779 98.2968 81.1053 98.4948 80.5673C98.6928 80.0292 98.9979 79.5369 99.3915 79.12C99.785 78.7032 100.259 78.3704 100.785 78.1419C101.311 77.9133 101.877 77.7937 102.451 77.7903C103.024 77.7869 103.592 77.8998 104.12 78.122C119.858 83.9336 128.894 92.9691 128.894 103.044C128.851 120.479 100.557 134.244 64.4151 134.244Z" fill="#006635"/>
<path d="M64.4123 118.101C40.8903 118.101 24.9403 59.7732 24.9403 40.4084C24.8183 35.1465 25.7494 29.9132 27.6788 25.0163C29.6082 20.1193 32.4969 15.6574 36.1753 11.8928C39.8537 8.12813 44.2474 5.13676 49.0984 3.09442C53.9493 1.05209 59.1595 0 64.4229 0C69.6862 0 74.8965 1.05209 79.7474 3.09442C84.5984 5.13676 88.9921 8.12813 92.6705 11.8928C96.3489 15.6574 99.2377 20.1193 101.167 25.0163C103.096 29.9132 104.027 35.1465 103.905 40.4084C103.905 59.7732 87.9555 118.101 64.4123 118.101ZM64.4123 9.39923C56.1935 9.41047 48.315 12.6818 42.5054 18.4953C36.6959 24.3088 33.4299 32.1897 33.4243 40.4084C33.4243 61.0458 49.6288 109.617 64.4123 109.617C79.1957 109.617 95.4214 61.0458 95.4214 40.4084C95.4102 32.1877 92.1397 24.3069 86.3268 18.494C80.5138 12.6811 72.633 9.41046 64.4123 9.39923V9.39923Z" fill="#006635"/>
</svg>
