<svg width="86" height="129" viewBox="0 0 86 129" fill="none" xmlns="http://www.w3.org/2000/svg">
<path d="M42.9132 70.5963C37.5284 70.6001 32.2634 69.0069 27.7842 66.018C23.3051 63.0292 19.8129 58.779 17.7496 53.8051C15.6863 48.8313 15.1444 43.3573 16.1926 38.0755C17.2408 32.7936 19.8319 27.9413 23.6382 24.1323C27.4445 20.3233 32.2949 17.7288 37.576 16.6768C42.8571 15.6249 48.3315 16.1628 53.3068 18.2226C58.2821 20.2824 62.5348 23.7716 65.5268 28.2486C68.5189 32.7257 70.1158 37.9895 70.1158 43.3743C70.1107 50.5891 67.2438 57.5073 62.144 62.6107C57.0441 67.7142 50.128 70.5861 42.9132 70.5963ZM42.9132 20.0412C38.2929 20.0373 33.7753 21.4043 29.932 23.9688C26.0888 26.5333 23.0926 30.1803 21.3227 34.4482C19.5528 38.7161 19.0887 43.413 19.9891 47.9448C20.8896 52.4765 23.1142 56.6393 26.3812 59.9064C29.6483 63.1735 33.8111 65.3979 38.3428 66.2984C42.8746 67.1988 47.5716 66.7347 51.8395 64.9648C56.1074 63.1949 59.7543 60.1989 62.3189 56.3556C64.8834 52.5123 66.2502 47.9946 66.2463 43.3743C66.2412 37.1875 63.7813 31.2557 59.4066 26.881C55.0319 22.5063 49.1 20.0463 42.9132 20.0412Z" fill="#006635"/>
<path d="M42.9128 128.619C17.3354 128.619 0 64.6367 0 43.3738C0 31.9926 4.52122 21.0776 12.5689 13.0299C20.6167 4.98215 31.5316 0.460938 42.9128 0.460938C54.294 0.460938 65.2091 4.98215 73.2569 13.0299C81.3046 21.0776 85.8257 31.9926 85.8257 43.3738C85.8644 64.6367 68.4516 128.619 42.9128 128.619ZM42.9128 8.19995C33.5889 8.2153 24.6512 11.926 18.0581 18.5191C11.4651 25.1121 7.75437 34.0498 7.73902 43.3738C7.73902 67.1132 25.7709 120.88 42.9128 120.88C60.0548 120.88 78.1254 67.1132 78.1254 43.3738C78.1151 34.0415 74.4008 25.0951 67.7982 18.4998C61.1957 11.9046 52.2451 8.19995 42.9128 8.19995Z" fill="#006635"/>
<path d="M52.8595 55.5441H45.3913C44.8782 55.5441 44.386 55.3402 44.0232 54.9774C43.6603 54.6145 43.4566 54.1225 43.4566 53.6093V48.9465H42.3731V53.6093C42.3731 54.1225 42.1693 54.6145 41.8064 54.9774C41.4436 55.3402 40.9515 55.5441 40.4384 55.5441H32.9701C32.457 55.5441 31.9649 55.3402 31.6021 54.9774C31.2392 54.6145 31.0354 54.1225 31.0354 53.6093V43.7807H28.8685C28.4898 43.7754 28.121 43.659 27.8078 43.4461C27.4946 43.2331 27.2509 42.9331 27.1067 42.5829C26.9625 42.2327 26.9242 41.8479 26.9966 41.4761C27.0691 41.1044 27.2491 40.7621 27.5142 40.4916L41.5412 26.4453C41.7211 26.264 41.935 26.1201 42.1707 26.0218C42.4065 25.9236 42.6594 25.873 42.9148 25.873C43.1702 25.873 43.4231 25.9236 43.6589 26.0218C43.8946 26.1201 44.1087 26.264 44.2885 26.4453L58.3155 40.4916C58.5872 40.7616 58.7726 41.106 58.8484 41.4815C58.9242 41.8569 58.8868 42.2464 58.7411 42.6006C58.593 42.9503 58.3453 43.2486 58.0288 43.4585C57.7122 43.6684 57.3409 43.7804 56.9611 43.7807H54.7942V53.6093C54.7942 54.1225 54.5904 54.6145 54.2275 54.9774C53.8647 55.3402 53.3726 55.5441 52.8595 55.5441ZM47.3261 51.6746H50.9247V41.846C50.9097 41.4092 51.0431 40.9802 51.3031 40.6289C51.563 40.2775 51.9343 40.0246 52.3564 39.9112L42.9148 30.4696L33.4732 39.9112C33.8953 40.0246 34.2666 40.2775 34.5265 40.6289C34.7865 40.9802 34.9198 41.4092 34.9049 41.846V51.6746H38.5036V47.0118C38.5036 46.4986 38.7074 46.0065 39.0702 45.6437C39.433 45.2809 39.9252 45.077 40.4384 45.077H45.3913C45.9045 45.077 46.3966 45.2809 46.7594 45.6437C47.1222 46.0065 47.3261 46.4986 47.3261 47.0118V51.6746Z" fill="#006635"/>
</svg>
