<svg width="128" height="112" viewBox="0 0 128 112" fill="none" xmlns="http://www.w3.org/2000/svg">
<path d="M98.3591 46.1742H61.5988C61.0857 46.1742 60.5935 45.9704 60.2306 45.6075C59.8678 45.2447 59.6641 44.7526 59.6641 44.2394C59.6641 43.7263 59.8678 43.2342 60.2306 42.8714C60.5935 42.5085 61.0857 42.3047 61.5988 42.3047H98.3591C98.8723 42.3047 99.3642 42.5085 99.7271 42.8714C100.09 43.2342 100.294 43.7263 100.294 44.2394C100.294 44.7526 100.09 45.2447 99.7271 45.6075C99.3642 45.9704 98.8723 46.1742 98.3591 46.1742Z" fill="#006635"/>
<path d="M98.3591 58.0336H61.5988C61.0857 58.0336 60.5935 57.8297 60.2306 57.4669C59.8678 57.1041 59.6641 56.6119 59.6641 56.0988C59.6641 55.5857 59.8678 55.0936 60.2306 54.7307C60.5935 54.3679 61.0857 54.1641 61.5988 54.1641H98.3591C98.8723 54.1641 99.3642 54.3679 99.7271 54.7307C100.09 55.0936 100.294 55.5857 100.294 56.0988C100.294 56.6119 100.09 57.1041 99.7271 57.4669C99.3642 57.8297 98.8723 58.0336 98.3591 58.0336Z" fill="#006635"/>
<path d="M98.3591 69.8929H61.5988C61.0857 69.8929 60.5935 69.6891 60.2306 69.3263C59.8678 68.9634 59.6641 68.4713 59.6641 67.9582C59.6641 67.4451 59.8678 66.9529 60.2306 66.5901C60.5935 66.2273 61.0857 66.0234 61.5988 66.0234H98.3591C98.8723 66.0234 99.3642 66.2273 99.7271 66.5901C100.09 66.9529 100.294 67.4451 100.294 67.9582C100.294 68.4713 100.09 68.9634 99.7271 69.3263C99.3642 69.6891 98.8723 69.8929 98.3591 69.8929Z" fill="#006635"/>
<path d="M114.073 111.568C112.641 111.56 111.263 111.022 110.204 110.059L90.1209 91.8531H42.4679C39.3891 91.8531 36.4364 90.6301 34.2594 88.4531C32.0823 86.2761 30.8594 83.3234 30.8594 80.2446V32.4562C30.8594 29.3774 32.0823 26.4247 34.2594 24.2477C36.4364 22.0707 39.3891 20.8477 42.4679 20.8477H115.776C118.855 20.8477 121.807 22.0707 123.984 24.2477C126.161 26.4247 127.384 29.3774 127.384 32.4562V80.2446C127.382 82.6429 126.636 84.9815 125.25 86.939C123.864 88.8964 121.906 90.3765 119.645 91.176L119.877 105.667C119.894 106.8 119.578 107.913 118.97 108.869C118.361 109.825 117.486 110.581 116.453 111.046C115.706 111.386 114.894 111.564 114.073 111.568ZM42.4873 28.5867C41.461 28.5867 40.4766 28.9944 39.7509 29.72C39.0253 30.4457 38.6178 31.4299 38.6178 32.4562V80.2446C38.6178 81.2709 39.0253 82.2551 39.7509 82.9808C40.4766 83.7064 41.461 84.1141 42.4873 84.1141H90.1403C92.0547 84.0931 93.9089 84.7824 95.3447 86.0489L112.119 101.256L111.945 89.6475C111.918 88.2869 112.371 86.9602 113.223 85.8993C114.075 84.8384 115.273 84.1106 116.608 83.8433C117.488 83.6545 118.274 83.1648 118.832 82.4585C119.39 81.7523 119.685 80.8736 119.665 79.9738V32.4562C119.665 31.4299 119.257 30.4457 118.531 29.72C117.806 28.9944 116.821 28.5867 115.795 28.5867H42.4873Z" fill="#006635"/>
<path d="M11.8794 78.4442C11.0915 78.4393 10.3136 78.2679 9.59654 77.9412C8.61709 77.4977 7.78794 76.7784 7.21069 75.8713C6.63345 74.9642 6.33301 73.9086 6.34605 72.8334L6.53948 60.9153C4.61475 60.1307 2.96609 58.7927 1.80202 57.0707C0.637956 55.3487 0.010791 53.3201 0 51.2416V10.6117C0.00511419 7.84241 1.10759 5.18797 3.0658 3.22976C5.02401 1.27155 7.6784 0.169177 10.4477 0.164063H72.8048C75.5775 0.164058 78.2369 1.26417 80.1993 3.22293C82.1617 5.1817 83.2668 7.83906 83.2719 10.6117V12.0048C83.2719 13.031 82.8642 14.0152 82.1385 14.7409C81.4128 15.4666 80.4287 15.8743 79.4024 15.8743C78.3761 15.8743 77.392 15.4666 76.6663 14.7409C75.9406 14.0152 75.5329 13.031 75.5329 12.0048V10.6117C75.5278 9.89158 75.2381 9.20266 74.7271 8.69524C74.216 8.18781 73.525 7.90306 72.8048 7.90308H10.4477C9.72934 7.90308 9.04031 8.18845 8.53233 8.69643C8.02436 9.2044 7.73902 9.89335 7.73902 10.6117V51.2416C7.73886 51.8626 7.95218 52.4649 8.34316 52.9474C8.73413 53.43 9.27898 53.7635 9.88657 53.8922C11.1391 54.159 12.2616 54.849 13.065 55.8462C13.8684 56.8435 14.3037 58.087 14.2979 59.3676L14.1819 67.8611L27.4543 55.8076C28.7625 54.5842 30.4808 53.8941 32.2718 53.8728C32.78 53.8576 33.2861 53.9426 33.7614 54.123C34.2367 54.3033 34.6718 54.5756 35.0419 54.9241C35.412 55.2726 35.7098 55.6907 35.9184 56.1543C36.1269 56.6179 36.242 57.1181 36.2573 57.6263C36.2725 58.1344 36.1875 58.6406 36.0072 59.1159C35.8268 59.5912 35.5546 60.0263 35.2061 60.3964C34.8575 60.7665 34.4395 61.0643 33.9758 61.2729C33.5122 61.4814 33.0121 61.5966 32.504 61.6119L15.5555 76.9545C14.5564 77.8883 13.2468 78.419 11.8794 78.4442Z" fill="#006635"/>
</svg>
