<svg width="141" height="143" viewBox="0 0 141 143" fill="none" xmlns="http://www.w3.org/2000/svg">
<path d="M104.092 73.201C96.8545 73.2056 89.7778 71.0641 83.7568 67.0472C77.7358 63.0304 73.041 57.3185 70.2659 50.6338C67.4908 43.9491 66.76 36.5916 68.1658 29.4915C69.5716 22.3915 73.0508 15.8677 78.1639 10.7448C83.277 5.62194 89.7941 2.13009 96.8915 0.710696C103.989 -0.708698 111.348 0.00810222 118.038 2.77047C124.728 5.53283 130.449 10.2167 134.477 16.23C138.505 22.2433 140.66 29.3159 140.67 36.5538C140.676 46.263 136.826 55.5774 129.967 62.4494C123.109 69.3214 113.802 73.1886 104.092 73.201V73.201ZM104.092 9.35424C98.695 9.34964 93.4176 10.9468 88.9286 13.9435C84.4395 16.9403 80.941 21.2017 78.8755 26.1883C76.81 31.1748 76.2706 36.6621 77.3259 41.9553C78.3811 47.2485 80.9835 52.1096 84.8033 55.9228C88.6231 59.7361 93.4884 62.33 98.7834 63.3762C104.078 64.4224 109.565 63.8737 114.548 61.7997C119.531 59.7257 123.786 56.2196 126.775 51.7254C129.764 47.2313 131.353 41.9512 131.339 36.5538C131.314 29.3396 128.434 22.4285 123.328 17.3316C118.223 12.2347 111.307 9.36653 104.092 9.35424V9.35424Z" fill="#006635"/>
<path d="M90.0344 125.197H53.1541C16.2271 125.36 3.30355 125.057 0.457624 118.012C-0.195539 116.356 -0.731964 113.02 3.18702 109.264C11.5848 101.263 22.0587 91.3257 22.0587 57.7345C22.0587 19.781 56.793 12.1763 57.0496 12.1064C57.65 11.9823 58.269 11.9777 58.8712 12.0928C59.4734 12.208 60.0472 12.4406 60.5595 12.7775C61.0718 13.1143 61.5127 13.5487 61.8571 14.056C62.2015 14.5632 62.4424 15.1333 62.5665 15.7337C62.6905 16.3342 62.6953 16.9531 62.5801 17.5553C62.465 18.1575 62.2324 18.7312 61.8956 19.2434C61.5587 19.7557 61.1243 20.1967 60.617 20.5411C60.1098 20.8855 59.5397 21.1266 58.9392 21.2506C50.8689 23.2016 43.7198 27.8792 38.7002 34.4928C33.6805 41.1063 31.098 49.2502 31.3896 57.5479C31.3896 90.6492 22.0589 103.712 11.2117 114.326C18.6298 115.843 37.4782 115.749 53.2008 115.679H79.3272C94.9332 115.679 113.782 115.843 121.316 114.326C113.639 107.419 107.993 98.5466 104.987 88.6664C104.619 87.4847 104.735 86.2052 105.311 85.1094C105.886 84.0135 106.873 83.1911 108.055 82.8229C109.236 82.4548 110.516 82.5712 111.612 83.1465C112.708 83.7218 113.53 84.7088 113.898 85.8905C117.397 97.1109 122.903 103.013 129.201 109.008C133.143 112.763 132.607 116.006 131.954 117.756C129.434 124.24 118.797 125.197 90.0344 125.197Z" fill="#006635"/>
<path d="M69.3867 142.574H68.4069C46.176 141.968 44.9164 120.833 44.9164 120.6C44.8886 119.982 45.1077 119.377 45.5255 118.92C45.9433 118.463 46.5254 118.19 47.1441 118.163C47.7628 118.135 48.3673 118.354 48.8244 118.772C49.2816 119.189 49.554 119.772 49.5819 120.39C50.0538 125.185 52.2925 129.634 55.8625 132.87C59.4325 136.105 64.0786 137.898 68.8969 137.898C73.7152 137.898 78.3611 136.105 81.9311 132.87C85.5011 129.634 87.7401 125.185 88.212 120.39C88.2398 119.772 88.5123 119.189 88.9694 118.772C89.4266 118.354 90.0308 118.135 90.6495 118.163C91.2682 118.19 91.8505 118.463 92.2683 118.92C92.6861 119.377 92.9053 119.982 92.8774 120.6C92.8774 120.833 91.6176 141.968 69.3867 142.574Z" fill="#006635"/>
</svg>
