<svg width="144" height="125" viewBox="0 0 144 125" fill="none" xmlns="http://www.w3.org/2000/svg">
<path d="M131.563 124.075H11.6085C8.52975 124.075 5.57701 122.852 3.39999 120.675C1.22297 118.498 0 115.545 0 112.466V12.5558C0 9.47702 1.22297 6.52428 3.39999 4.34726C5.57701 2.17024 8.52975 0.947266 11.6085 0.947266H131.563C134.642 0.947266 137.595 2.17024 139.772 4.34726C141.949 6.52428 143.172 9.47702 143.172 12.5558V112.466C143.172 115.545 141.949 118.498 139.772 120.675C137.595 122.852 134.642 124.075 131.563 124.075ZM11.6085 8.68628C10.5823 8.68628 9.5981 9.0939 8.87243 9.81957C8.14675 10.5452 7.73902 11.5295 7.73902 12.5558V112.466C7.73902 113.493 8.14675 114.477 8.87243 115.203C9.5981 115.928 10.5823 116.336 11.6085 116.336H131.563C132.59 116.336 133.574 115.928 134.299 115.203C135.025 114.477 135.433 113.493 135.433 112.466V12.5558C135.433 11.5295 135.025 10.5452 134.299 9.81957C133.574 9.0939 132.59 8.68628 131.563 8.68628H11.6085Z" fill="#006635"/>
<path d="M6.65583 94.8587L0.851562 89.693L27.5706 59.8784C28.4956 58.851 29.6224 58.0253 30.8806 57.4527C32.1389 56.8802 33.5018 56.5731 34.8841 56.5506C36.2698 56.5204 37.6465 56.7801 38.926 57.3132C40.2054 57.8463 41.3592 58.6409 42.3135 59.6462L55.6246 73.5764C55.8394 73.8004 56.0979 73.9778 56.3841 74.0976C56.6704 74.2174 56.9782 74.2771 57.2884 74.2729C57.6039 74.281 57.9175 74.2212 58.2079 74.0977C58.4982 73.9742 58.7586 73.7899 58.9717 73.5571L86.0582 44.4197C87.8576 42.509 90.3301 41.3737 92.952 41.2546C95.5739 41.1354 98.1393 42.0416 100.105 43.7812L141.779 81.1607L136.613 86.9649L94.9387 49.6048C94.4858 49.2053 93.8951 48.998 93.2918 49.0269C92.6886 49.0558 92.1204 49.3187 91.7078 49.7596L64.6212 78.7809C63.6881 79.7781 62.5622 80.5752 61.3117 81.1239C60.0612 81.6727 58.7121 81.9616 57.3465 81.9732V81.9732C55.9912 81.9715 54.6502 81.6966 53.4036 81.1647C52.157 80.6328 51.0303 79.8549 50.0912 78.8777L36.7801 64.9474C36.3265 64.5 35.7146 64.2498 35.0775 64.2509C34.7591 64.2477 34.4437 64.3135 34.1531 64.4438C33.8625 64.574 33.6037 64.7657 33.3943 65.0055L6.65583 94.8587Z" fill="#006635"/>
<path d="M44.0119 49.3538C41.0042 49.3538 38.064 48.4619 35.5632 46.7909C33.0624 45.12 31.1132 42.7449 29.9623 39.9662C28.8113 37.1874 28.5101 34.1298 29.0969 31.1799C29.6837 28.23 31.132 25.5203 33.2588 23.3936C35.3856 21.2668 38.0951 19.8184 41.0451 19.2317C43.995 18.6449 47.0528 18.946 49.8315 20.097C52.6103 21.248 54.9853 23.1972 56.6563 25.6981C58.3273 28.1989 59.219 31.139 59.219 34.1467C59.2139 38.1783 57.6101 42.0433 54.7593 44.8941C51.9085 47.7449 48.0435 49.3487 44.0119 49.3538V49.3538ZM44.0119 22.8284C41.7687 22.8284 39.5758 23.4938 37.711 24.7405C35.8461 25.9871 34.3929 27.7589 33.5354 29.8317C32.6778 31.9045 32.4544 34.1852 32.8934 36.385C33.3325 38.5848 34.4142 40.6049 36.0017 42.1898C37.5893 43.7746 39.6114 44.8529 41.8119 45.2881C44.0125 45.7234 46.2928 45.4962 48.3641 44.6351C50.4355 43.774 52.2048 42.3178 53.4483 40.4508C54.6918 38.5838 55.3534 36.3899 55.3495 34.1467C55.3444 31.1431 54.1477 28.2642 52.022 26.1422C49.8964 24.0201 47.0155 22.8284 44.0119 22.8284V22.8284Z" fill="#006635"/>
</svg>
