<svg width="106" height="125" viewBox="0 0 106 125" fill="none" xmlns="http://www.w3.org/2000/svg">
<path d="M50.4316 68.8923C43.6201 68.8923 36.9617 66.8725 31.2982 63.0883C25.6347 59.304 21.2204 53.9253 18.6138 47.6324C16.0072 41.3394 15.3251 34.4148 16.6539 27.7342C17.9828 21.0537 21.2627 14.9172 26.0791 10.1007C30.8956 5.2843 37.0321 2.00428 43.7127 0.67543C50.3932 -0.653419 57.3179 0.0285935 63.6108 2.63522C69.9038 5.24186 75.2827 9.65603 79.0669 15.3195C82.8512 20.9831 84.8709 27.6416 84.8709 34.453C84.8709 43.5869 81.2424 52.3467 74.7837 58.8053C68.3251 65.2639 59.5655 68.8923 50.4316 68.8923V68.8923ZM50.4316 10.1744C45.6388 10.1744 40.9535 11.596 36.9688 14.2593C32.984 16.9226 29.8789 20.7079 28.0459 25.1364C26.2129 29.5649 25.7347 34.4375 26.6716 39.1379C27.6085 43.8383 29.9184 48.1552 33.3092 51.5424C36.7 54.9297 41.0192 57.2351 45.7205 58.167C50.4219 59.099 55.2941 58.6156 59.7206 56.7779C64.1472 54.9403 67.9294 51.831 70.5885 47.8435C73.2475 43.8559 74.6641 39.1693 74.6591 34.3764C74.6321 27.9686 72.0675 21.8324 67.5269 17.311C62.9863 12.7895 56.8395 10.251 50.4316 10.251V10.1744Z" fill="#006635"/>
<path d="M52.9874 124.214C42.2411 124.218 31.5457 122.741 21.2033 119.823L15.178 118.138C12.2454 117.32 9.52877 115.867 7.2206 113.881C4.91243 111.896 3.06944 109.427 1.82207 106.649C0.574701 103.872 -0.0465391 100.854 0.00271593 97.8101C0.051971 94.7659 0.770342 91.7698 2.10691 89.0343L13.5696 65.5216C13.8388 64.8815 14.2358 64.303 14.7361 63.8215C15.2364 63.3399 15.8297 62.9655 16.4797 62.7212C17.1297 62.4768 17.8226 62.3676 18.5163 62.4002C19.2099 62.4328 19.8897 62.6065 20.5139 62.9108C21.1381 63.2151 21.6936 63.6435 22.1466 64.1698C22.5996 64.6961 22.9406 65.3093 23.1485 65.9719C23.3564 66.6344 23.4268 67.3324 23.3557 68.0232C23.2846 68.714 23.0734 69.383 22.735 69.9893L11.2722 93.3999C10.5987 94.7934 10.2388 96.3176 10.2176 97.8652C10.1965 99.4128 10.5146 100.946 11.1498 102.358C11.7849 103.769 12.7214 105.024 13.8937 106.035C15.0661 107.045 16.4457 107.787 17.9354 108.207L23.9603 109.892C42.9526 115.227 63.0477 115.227 82.04 109.892L88.0649 108.207C89.5575 107.792 90.9401 107.053 92.1147 106.043C93.2892 105.032 94.2268 103.776 94.8605 102.362C95.4943 100.948 95.8087 99.4123 95.7814 97.8633C95.7541 96.3143 95.3856 94.7903 94.7025 93.3999L83.2398 69.8872C82.6474 68.6684 82.5632 67.2642 83.0061 65.9835C83.4489 64.7028 84.3827 63.6505 85.6014 63.058C86.8202 62.4656 88.2243 62.3815 89.505 62.8244C90.7857 63.2673 91.8379 64.2008 92.4304 65.4195L103.893 88.9322C105.23 91.6677 105.948 94.6638 105.997 97.708C106.047 100.752 105.426 103.77 104.178 106.547C102.931 109.325 101.088 111.794 98.7797 113.779C96.4715 115.764 93.7546 117.218 90.822 118.036L84.7971 119.721C74.4507 122.673 63.7468 124.185 52.9874 124.214V124.214Z" fill="#006635"/>
</svg>
