<svg width="150" height="122" viewBox="0 0 150 122" fill="none" xmlns="http://www.w3.org/2000/svg">
<g clip-path="url(#clip0_181_2145)">
<path d="M119.065 121.038H79.8666C73.4698 121.043 67.2031 119.232 61.7961 115.814L25.2098 92.7322C24.7313 92.4424 24.1827 92.2885 23.6233 92.2872H9.55769C7.03219 92.2571 4.61862 91.2405 2.8327 89.4545C1.04677 87.6686 0.0301284 85.255 0 82.7295V53.3986C0.0301284 50.8731 1.04677 48.4596 2.8327 46.6736C4.61862 44.8877 7.03219 43.8711 9.55769 43.841H43.0289C46.646 43.6999 50.2549 44.2828 53.6437 45.5552C57.0326 46.8277 60.1331 48.7642 62.7634 51.2511L91.3204 79.808C93.262 81.7673 94.5124 84.3058 94.8824 87.0392C95.2525 89.7726 94.722 92.5522 93.3713 94.9572H119.103C122.207 95.1319 125.152 96.389 127.425 98.5099C129.698 100.631 131.155 103.481 131.544 106.566C131.628 106.875 131.674 107.193 131.679 107.514V108.326C131.675 108.647 131.63 108.965 131.544 109.274C131.191 112.394 129.744 115.288 127.459 117.442C125.175 119.596 122.2 120.87 119.065 121.038ZM9.55769 51.58C9.07535 51.58 8.61278 51.7716 8.27171 52.1127C7.93065 52.4537 7.73902 52.9163 7.73902 53.3986V82.7295C7.73902 83.2119 7.93065 83.6744 8.27171 84.0155C8.61278 84.3566 9.07535 84.5482 9.55769 84.5482H23.6233C25.6433 84.5435 27.623 85.1139 29.3308 86.1928L65.9171 109.274C70.0945 111.904 74.9303 113.299 79.8666 113.299H119.065C120.383 113.186 121.61 112.582 122.504 111.608C123.399 110.633 123.895 109.359 123.895 108.036C123.895 106.713 123.399 105.439 122.504 104.465C121.61 103.49 120.383 102.887 119.065 102.774L82.5172 102.657C81.4386 102.803 80.3454 102.803 79.2668 102.657C78.9301 102.66 78.5958 102.601 78.2801 102.483C76.1222 102.037 74.1202 101.029 72.4758 99.5619L57.1526 85.8058C56.3829 85.1208 55.9169 84.158 55.8571 83.1294C55.7972 82.1007 56.1484 81.0905 56.8334 80.3208C57.5184 79.5511 58.4811 79.085 59.5098 79.0252C60.5384 78.9653 61.5487 79.3165 62.3184 80.0015L77.6417 93.7577C78.275 94.3201 79.0404 94.7128 79.8666 94.8992H81.8014C82.7356 94.7102 83.5916 94.2452 84.2585 93.5642L85.6902 92.1518C86.5962 91.2346 87.1038 89.9971 87.1027 88.7079C87.1074 88.0689 86.985 87.4353 86.7425 86.8441C86.5 86.2528 86.1423 85.7157 85.6902 85.2641L57.1332 56.7071C55.2253 54.9335 52.9789 53.5635 50.5287 52.6791C48.0785 51.7948 45.4749 51.4144 42.8741 51.5607L9.55769 51.58Z" fill="#006635"/>
<path d="M134.023 66.013C133.397 66.0186 132.78 65.8726 132.223 65.5874L115.101 56.494L97.9589 65.5099C97.3176 65.8453 96.5951 65.994 95.8735 65.9393C95.1518 65.8845 94.46 65.6286 93.8766 65.2004C93.2798 64.7679 92.8188 64.174 92.548 63.4885C92.2772 62.803 92.2079 62.0545 92.3481 61.3309L95.6178 42.2349L81.7456 28.6916C81.2236 28.1881 80.8537 27.548 80.6779 26.8443C80.5021 26.1407 80.5276 25.4018 80.7515 24.712C80.9754 24.0221 81.3887 23.4091 81.9441 22.9428C82.4996 22.4765 83.175 22.1757 83.8932 22.0747L103.067 19.2886L111.618 1.87585C111.937 1.22681 112.432 0.680155 113.045 0.29784C113.659 -0.0844756 114.368 -0.287109 115.091 -0.287109C115.814 -0.287109 116.523 -0.0844756 117.137 0.29784C117.751 0.680155 118.245 1.22681 118.564 1.87585L127.135 19.2886L146.308 22.0747C147.025 22.1787 147.698 22.4817 148.251 22.9492C148.804 23.4167 149.215 24.03 149.436 24.7193C149.658 25.4087 149.682 26.1464 149.505 26.8486C149.328 27.5508 148.958 28.1893 148.437 28.6916L134.584 42.2349L137.854 61.3309C137.992 62.0563 137.919 62.8062 137.645 63.4918C137.371 64.1775 136.906 64.7703 136.306 65.2004C135.656 65.7175 134.853 66.0035 134.023 66.013V66.013ZM115.101 48.3293C115.729 48.3224 116.348 48.4756 116.9 48.7743L128.896 55.0816L126.613 41.7124C126.505 41.095 126.55 40.4608 126.742 39.8642C126.934 39.2677 127.268 38.7268 127.715 38.2879L137.389 28.827L123.981 26.8923C123.36 26.8041 122.769 26.566 122.26 26.1986C121.751 25.8312 121.339 25.3455 121.06 24.7833L115.062 12.6138L109.064 24.7833C108.785 25.3455 108.373 25.8312 107.864 26.1986C107.355 26.566 106.764 26.8041 106.143 26.8923L92.735 28.827L102.409 38.2879C102.86 38.7249 103.197 39.265 103.393 39.8616C103.588 40.4582 103.636 41.0934 103.531 41.7124L101.229 55.0816L113.243 48.7743C113.813 48.4658 114.453 48.3123 115.101 48.3293V48.3293Z" fill="#006635"/>
<path d="M24.4738 90.3908C23.9607 90.3908 23.4686 90.187 23.1058 89.8242C22.7429 89.4613 22.5391 88.9692 22.5391 88.4561V47.7101C22.5391 47.197 22.7429 46.7049 23.1058 46.3421C23.4686 45.9793 23.9607 45.7754 24.4738 45.7754C24.9869 45.7754 25.4791 45.9793 25.842 46.3421C26.2048 46.7049 26.4086 47.197 26.4086 47.7101V88.4561C26.4086 88.9692 26.2048 89.4613 25.842 89.8242C25.4791 90.187 24.9869 90.3908 24.4738 90.3908Z" fill="#006635"/>
</g>
<defs>
<clipPath id="clip0_181_2145">
<rect width="149.595" height="121.058" fill="white"/>
</clipPath>
</defs>
</svg>
