<svg id="Layer_1" data-name="Layer 1" xmlns="http://www.w3.org/2000/svg" xmlns:xlink="http://www.w3.org/1999/xlink" viewBox="0 0 1037 193"><defs><style>.cls-1{fill:none;}.cls-2{clip-path:url(#clip-path);}.cls-3{fill:#faa22c;}.cls-4{fill:#ef3b43;}.cls-5{fill:#009c4e;}.cls-6{fill:#008dce;}.cls-7{fill:#383838;}</style><clipPath id="clip-path"><rect class="cls-1" width="1036.72" height="192.94"/></clipPath></defs><g class="cls-2"><path class="cls-3" d="M3.56,104.22a11.24,11.24,0,0,1,3.66-2.46,11,11,0,0,1,4.32-.85h33.3A47.27,47.27,0,0,1,92.06,148.1v33.58a11.31,11.31,0,0,1-22.57,0V148.1a24.65,24.65,0,0,0-24.63-24.62H11.54A11.28,11.28,0,0,1,.48,110,11.24,11.24,0,0,1,3.56,104.22Z"/><path class="cls-3" d="M37.31,178.4A22.37,22.37,0,1,0,15,156,22.37,22.37,0,0,0,37.31,178.4Z"/><path class="cls-4" d="M88.75,4.36a11.38,11.38,0,0,1,3.31,8V45.67A47.29,47.29,0,0,1,44.84,92.86H11.28a11.29,11.29,0,0,1,0-22.57H44.84A24.65,24.65,0,0,0,69.46,45.67V12.26a11.32,11.32,0,0,1,19.29-8Z"/><path class="cls-4" d="M36.91,60.38A22.37,22.37,0,1,0,14.54,38,22.36,22.36,0,0,0,36.91,60.38Z"/><path class="cls-5" d="M104.54,189.4a11.4,11.4,0,0,1-3.31-8V148.1a47.27,47.27,0,0,1,47.22-47.19H182a11.29,11.29,0,0,1,0,22.57H148.45a24.65,24.65,0,0,0-24.62,24.62v33.3a11.29,11.29,0,0,1-19.29,8Z"/><path class="cls-5" d="M156.38,178A22.37,22.37,0,1,0,134,155.63,22.37,22.37,0,0,0,156.38,178Z"/><path class="cls-6" d="M104.54,3.31a11.29,11.29,0,0,1,19.29,8V45.56a24.65,24.65,0,0,0,24.62,24.63h35.11a11.29,11.29,0,1,1,.63,22.57H148.45a47.29,47.29,0,0,1-47.22-47.2V11.31A11.4,11.4,0,0,1,104.54,3.31Z"/><path class="cls-6" d="M155.93,60.36A22.37,22.37,0,1,0,133.56,38,22.36,22.36,0,0,0,155.93,60.36Z"/><path class="cls-7" d="M341,37.82V143.66H322.44L269.52,68.81v74.85H251.27V37.82h18.56l52.91,74.85V37.82Z"/><path class="cls-7" d="M439.77,111.44H376.33C379.08,122.65,388.86,130,401.4,130a30,30,0,0,0,23.47-10.74l11.66,10a45.13,45.13,0,0,1-35.6,16.24c-24.83,0-43.24-17.8-43.24-41.25s17.78-40.65,41.25-40.65a40.13,40.13,0,0,1,41.28,41A51.09,51.09,0,0,1,439.77,111.44ZM376.33,97.32h45.53a23.32,23.32,0,0,0-45.53,0Z"/><path class="cls-7" d="M453,41.35a11,11,0,1,1,3.21,7.75A10.94,10.94,0,0,1,453,41.35Zm2.28,24.07h17.21v78.24H455.24Z"/><path class="cls-7" d="M570.59,171.1H552.82c-.48-6.3-5.85-10-13.67-10H512.32c-14,0-23.32-8.13-23.32-19.94a21.9,21.9,0,0,1,10.2-18.91A33,33,0,0,1,488.62,97.7c0-19.49,15.65-34.21,36.34-34.21a39.56,39.56,0,0,1,17.8,4.14c2-8.3,9.2-13.51,19.18-13.51h6.27v16h-5.36c-4.74,0-8.28,2.51-8.73,6.74a32.88,32.88,0,0,1,7.2,20.87c0,19.46-15.8,34.2-36.36,34.2a41.32,41.32,0,0,1-14.57-2.5,9,9,0,0,0-4.14,7.52c0,4.46,3.68,7.52,9.2,7.52h26.86C557.55,144.42,570.59,153.14,570.59,171.1ZM506.32,97.8a18.65,18.65,0,1,0,18.71-18,18,18,0,0,0-18.71,18Z"/><path class="cls-7" d="M653.72,94.41v49.25H636.55V100.08c0-12-7.68-19.93-19.49-19.93-12.41,0-20.69,8.12-20.69,20.26v43.25h-17.2V33.33h17.2v42.8a32,32,0,0,1,26.38-12.54C641.31,63.59,653.72,75.86,653.72,94.41Z"/><path class="cls-7" d="M756,104.67c0,23.32-16.58,41-38.5,41A34.21,34.21,0,0,1,690,132.43v11.36H672.73V33.45h17.18V77a34.1,34.1,0,0,1,27.58-13.19C739.46,63.59,756,81.22,756,104.67Zm-17.81,0A24.18,24.18,0,1,0,714.16,129a23.7,23.7,0,0,0,24.07-24.37Z"/><path class="cls-7" d="M767.07,104.67c0-23.32,18-40.95,41.88-40.95s41.88,17.55,41.88,41-18.11,41-41.88,41S767.07,127.87,767.07,104.67Zm65.95,0A24.18,24.18,0,1,0,809,129,23.7,23.7,0,0,0,833,104.67Z"/><path class="cls-7" d="M910.78,64.2V81.75H908c-15.35,0-24.4,9.35-24.4,23.77v38H866.37V65.32h17.18V76.84A29.36,29.36,0,0,1,908,64.1Z"/><path class="cls-7" d="M923.52,33.2H940.7V143.54H923.52Z"/><path class="cls-7" d="M971.42,171.1s7.32-15,9.45-19.61l4.14-8.75-32.6-77.32h19.64l22.57,57.05,22.84-57h19.18l-40.12,93.12-5.42,12.81"/></g></svg>