<svg width="125" height="113" viewBox="0 0 125 113" fill="none" xmlns="http://www.w3.org/2000/svg">
<g clip-path="url(#clip0_197_1122)">
<path d="M72.4304 113.018C70.869 113.015 69.3504 112.507 68.1019 111.568L49.4584 97.6281C47.7269 96.3329 46.3203 94.6518 45.3501 92.718C44.3799 90.7842 43.8727 88.6509 43.8687 86.4868V74.0658C43.8782 72.255 43.2779 70.4939 42.1646 69.0667L2.66221 19.5024C1.22583 17.7433 0.320415 15.6104 0.0522992 13.3542C-0.215816 11.098 0.164465 8.81199 1.1485 6.76457C2.13253 4.71715 3.67956 2.99328 5.60787 1.79522C7.53618 0.597159 9.76579 -0.0253389 12.0351 0.000790018H113.041C115.326 -0.0238223 117.571 0.609456 119.507 1.82526C121.443 3.04107 122.99 4.7882 123.963 6.85882C124.936 8.92943 125.294 11.2363 124.996 13.505C124.697 15.7737 123.753 17.9087 122.277 19.6559L81.5477 69.135C80.3683 70.5795 79.7242 72.3878 79.7243 74.2535V105.835C79.7153 107.76 78.9476 109.603 77.5881 110.964C76.2285 112.325 74.3872 113.094 72.4646 113.103L72.4304 113.018ZM12.001 6.82549C11.0169 6.80118 10.0467 7.0618 9.20695 7.57611C8.36722 8.09041 7.6937 8.83651 7.2672 9.72476C6.84069 10.613 6.67939 11.6057 6.80268 12.5835C6.92596 13.5613 7.32852 14.4826 7.96211 15.2369L47.4475 64.8184C49.5437 67.4437 50.6855 70.7048 50.6854 74.0658V86.4868C50.6874 87.5875 50.9457 88.6725 51.4397 89.6558C51.9337 90.6391 52.6498 91.4935 53.5313 92.1513L72.1748 106.091C72.2379 106.143 72.3149 106.177 72.3964 106.187C72.478 106.197 72.5607 106.183 72.6345 106.147C72.7084 106.111 72.7702 106.054 72.8126 105.983C72.855 105.913 72.8762 105.832 72.8735 105.75V74.1682C72.8757 70.7214 74.0813 67.3839 76.2819 64.7331L117.011 15.254C117.68 14.5064 118.115 13.5783 118.261 12.5852C118.407 11.5922 118.259 10.578 117.834 9.66884C117.409 8.75969 116.726 7.99568 115.871 7.47192C115.016 6.94816 114.025 6.68779 113.024 6.72313L12.001 6.82549Z" fill="#006635"/>
<path d="M81.0655 49.8544C80.6811 49.8522 80.3087 49.7199 80.0089 49.4791C79.6552 49.2 79.4261 48.7921 79.3718 48.3445C79.3175 47.897 79.4425 47.4461 79.7192 47.0904L101.72 19.2797C102 18.9245 102.41 18.6953 102.859 18.6425C103.308 18.5897 103.759 18.7176 104.114 18.9982C104.469 19.2787 104.698 19.6889 104.751 20.1385C104.803 20.588 104.676 21.0402 104.395 21.3954L82.3946 49.2061C82.2359 49.4071 82.0341 49.5698 81.804 49.6821C81.5738 49.7943 81.3214 49.8532 81.0655 49.8544V49.8544Z" fill="#006635"/>
</g>
<defs>
<clipPath id="clip0_197_1122">
<rect width="125" height="113" fill="white"/>
</clipPath>
</defs>
</svg>
