<svg width="115" height="115" viewBox="0 0 115 115" fill="none" xmlns="http://www.w3.org/2000/svg">
<path d="M64.0336 37.0169C63.5428 37.0425 63.0572 36.9068 62.6508 36.6304C62.2445 36.3541 61.9397 35.9524 61.7831 35.4866C60.3712 31.3188 57.6882 27.6986 54.1115 25.1352C50.5348 22.5718 46.2446 21.1942 41.8442 21.1962C41.2473 21.1962 40.675 20.9591 40.2529 20.5371C39.8309 20.115 39.5938 19.5426 39.5938 18.9458C39.5938 18.3489 39.8309 17.7765 40.2529 17.3545C40.675 16.9324 41.2473 16.6953 41.8442 16.6953C47.1866 16.6976 52.3943 18.372 56.7369 21.4836C61.0796 24.5953 64.3393 28.9882 66.0591 34.0463C66.1544 34.327 66.1932 34.6238 66.1735 34.9196C66.1537 35.2154 66.0758 35.5044 65.9441 35.77C65.8123 36.0355 65.6294 36.2725 65.4058 36.4671C65.1822 36.6618 64.9224 36.8104 64.6413 36.9044C64.4435 36.9641 64.2397 37.0018 64.0336 37.0169Z" fill="#006635"/>
<path d="M41.9034 84.1427C33.6157 84.1427 25.514 81.6851 18.6231 77.0807C11.7321 72.4763 6.36126 65.9319 3.1897 58.275C0.0181313 50.6182 -0.811662 42.1928 0.805189 34.0644C2.42204 25.9359 6.41293 18.4695 12.2732 12.6092C18.1335 6.74888 25.6 2.75797 33.7284 1.14112C41.8569 -0.475733 50.2823 0.354094 57.9392 3.52566C65.596 6.69723 72.1404 12.0681 76.7448 18.9591C81.3492 25.85 83.8067 33.9516 83.8067 42.2393C83.7948 53.3491 79.3763 64.0005 71.5204 71.8563C63.6646 79.7121 53.0132 84.1308 41.9034 84.1427ZM41.9034 9.36026C35.3951 9.36026 29.033 11.2905 23.6219 14.9067C18.2108 18.523 13.9937 23.6628 11.5042 29.6761C9.01458 35.6894 8.36436 42.306 9.6357 48.6889C10.907 55.0718 14.0428 60.9342 18.6464 65.5347C23.25 70.1352 29.1147 73.267 35.4984 74.5339C41.8822 75.8009 48.4984 75.1461 54.5099 72.6524C60.5215 70.1588 65.6584 65.9382 69.271 60.5246C72.8835 55.111 74.8094 48.7476 74.8049 42.2393C74.793 33.519 71.3221 25.1596 65.1538 18.9955C58.9855 12.8314 50.6237 9.36621 41.9034 9.36026Z" fill="#006635"/>
<path d="M109.533 114.816C108.341 114.811 107.2 114.333 106.359 113.488L76.1134 83.2418C75.3391 82.3843 74.9242 81.2618 74.9547 80.1068C74.9852 78.9518 75.4587 77.8528 76.2772 77.0373C77.0956 76.2217 78.1962 75.7522 79.3513 75.7258C80.5064 75.6994 81.6274 76.1183 82.4822 76.8956L112.728 107.119C113.363 107.749 113.796 108.553 113.972 109.43C114.148 110.306 114.058 111.215 113.716 112.041C113.373 112.866 112.792 113.571 112.047 114.065C111.302 114.56 110.427 114.821 109.533 114.816Z" fill="#006635"/>
</svg>
