<svg width="135" height="135" viewBox="0 0 135 135" fill="none" xmlns="http://www.w3.org/2000/svg">
<g clip-path="url(#clip0_219_276)">
<path d="M52.5254 134.98C49.8691 135.018 47.2513 134.344 44.946 133.028C43.5294 132.071 42.3398 130.816 41.4602 129.353C40.5807 127.89 40.0325 126.253 39.8539 124.556C39.3839 122.37 39.1096 121.433 38.287 120.926C36.3285 119.696 33.7628 119.286 33.1165 119.813L32.4311 120.379C30.3159 122.155 26.771 125.142 22.6385 123.932C20.1898 123.132 17.9312 121.841 16.0013 120.139C14.0714 118.437 12.5111 116.36 11.4163 114.035C8.85067 109.214 11.5925 105.524 13.0418 103.553C13.2768 103.24 13.5118 102.948 13.7076 102.635C14.1848 101.935 14.4766 101.125 14.5554 100.282C14.6341 99.4394 14.4975 98.5902 14.1583 97.8139C13.8434 97.0922 13.3488 96.4624 12.7217 95.9842C12.0945 95.506 11.3554 95.1952 10.574 95.0811C-0.628621 93.3829 -0.197702 84.8332 0.0960741 79.1724C0.487776 71.3644 7.49924 70.0956 9.88862 69.6662C10.8467 69.6062 11.7702 69.2875 12.5603 68.7442C13.3504 68.2008 13.9774 67.4534 14.3737 66.582C14.8633 65.4303 15.157 63.7321 13.0614 60.6284C10.6916 57.1148 8.16517 50.1267 17.7619 42.7872C19.5872 41.2931 21.8589 40.4458 24.22 40.3787C26.5811 40.3116 28.8978 41.0283 30.8056 42.4163L31.7064 43.08C34.0175 44.7587 34.1545 44.8563 35.7604 44.2707C38.8157 43.1386 39.4816 42.1431 39.6775 41.6746C39.8181 41.0302 39.9228 40.3785 39.9909 39.7226C40.1108 37.0355 41.1551 34.4714 42.9483 32.4612C46.1406 29.2794 51.2327 29.4941 52.8974 29.5722C53.4136 29.5922 53.9208 29.7139 54.3897 29.9301C54.8586 30.1464 55.28 30.4529 55.6295 30.8321C55.9791 31.2113 56.2499 31.6557 56.4264 32.1396C56.6029 32.6235 56.6815 33.1375 56.6578 33.6518C56.6352 34.1647 56.5113 34.6681 56.2932 35.1331C56.0752 35.5982 55.7673 36.0159 55.3871 36.3622C55.0069 36.7085 54.5618 36.9766 54.0775 37.1513C53.5931 37.326 53.0791 37.4038 52.5646 37.3802C49.3526 37.2435 48.6474 37.8877 48.5103 37.9658C48.0199 38.8156 47.7569 39.7768 47.7465 40.7571C47.6496 41.6979 47.486 42.6307 47.2569 43.5485C45.8859 48.7798 40.363 50.8294 38.5416 51.5126C32.999 53.5622 29.8851 51.2979 27.1432 49.3069L26.3205 48.7018C25.7771 48.2789 25.0979 48.0675 24.4096 48.107C23.7213 48.1465 23.0708 48.4342 22.5797 48.9165C17.3897 52.8205 18.6627 54.8701 19.6223 56.1974C22.7755 60.8432 23.5394 65.3523 21.5809 69.5881C20.6691 71.6295 19.2499 73.4053 17.4575 74.7477C15.6652 76.0901 13.5589 76.9545 11.3379 77.2594C8.08677 77.8645 8.04768 78.4892 7.98892 79.5043C7.65597 86.1996 8.16519 86.7266 11.9059 87.3122C13.9892 87.6215 15.9598 88.4513 17.6344 89.7244C19.3091 90.9975 20.6332 92.6725 21.4831 94.5931C22.3578 96.5673 22.7176 98.7299 22.5293 100.88C22.3409 103.03 21.6106 105.097 20.4058 106.891L19.505 108.14C19.0373 108.692 18.6543 109.311 18.3689 109.975C18.3884 110.091 18.4282 110.204 18.4865 110.307C19.703 113.055 21.964 115.211 24.7732 116.299C25.7817 115.772 26.7167 115.116 27.5544 114.347L28.3575 113.664C32.2745 110.482 38.3654 111.712 42.5566 114.211C43.9819 115.197 45.1764 116.479 46.0586 117.968C46.9409 119.457 47.4901 121.118 47.6683 122.839C48.1384 124.947 48.393 125.845 49.1176 126.274C50.0629 126.759 51.0973 127.047 52.1579 127.121C53.2185 127.195 54.2832 127.053 55.287 126.703C55.7691 126.568 56.212 126.32 56.5796 125.981C56.9473 125.642 57.2292 125.22 57.4021 124.751C57.6222 124.063 57.786 123.358 57.8917 122.643C58.008 121.139 58.45 119.678 59.187 118.361C59.924 117.043 60.9388 115.9 62.1613 115.011C66.8618 111.615 71.4249 110.873 75.7141 112.786C76.7308 113.255 77.7126 113.797 78.6518 114.406C80.3166 115.441 80.9433 115.753 81.8638 115.636C83.509 115.401 85.0954 113.684 86.5643 110.717C86.8189 110.209 86.8775 110.092 85.4674 108.16C84.4149 106.84 83.5756 105.365 82.9801 103.787C82.4392 101.976 82.2993 100.069 82.5698 98.1987C82.8403 96.3283 83.5149 94.5387 84.547 92.9535C85.4315 91.4485 86.6374 90.156 88.0793 89.1676C89.5212 88.1791 91.1637 87.519 92.8902 87.2341L93.5953 87.1365C96.3176 86.7851 96.6114 86.59 96.8268 86.0239C97.2954 84.7754 97.5342 83.4529 97.5319 82.1199C97.5319 81.0845 97.9446 80.0915 98.6792 79.3594C99.4138 78.6272 100.41 78.2159 101.449 78.2159C102.488 78.2159 103.484 78.6272 104.219 79.3594C104.953 80.0915 105.366 81.0845 105.366 82.1199C105.351 84.3458 104.946 86.552 104.171 88.6396C102.213 93.8319 97.4535 94.4956 94.5941 94.8079H93.9283C93.3492 94.9502 92.807 95.2134 92.3377 95.5802C91.8684 95.947 91.4826 96.409 91.2059 96.9356C90.7883 97.5455 90.5014 98.2348 90.3632 98.9602C90.225 99.6857 90.2386 100.432 90.4029 101.152C90.7643 101.964 91.2318 102.726 91.7933 103.416C93.3601 105.563 95.9847 109.136 93.6149 113.996C90.9121 119.501 87.3282 122.604 82.9607 123.209C79.9439 123.533 76.9168 122.695 74.4998 120.867C73.8721 120.454 73.2179 120.082 72.5413 119.754C71.4445 119.266 69.819 118.993 66.6658 121.179C65.9411 121.706 65.8433 122.038 65.5299 123.834C65.3549 124.946 65.093 126.042 64.7465 127.113C64.1886 128.672 63.2837 130.083 62.0999 131.243C60.9161 132.403 59.484 133.28 57.9113 133.809C56.1995 134.513 54.376 134.91 52.5254 134.98V134.98Z" fill="#006635"/>
<path d="M52.4712 100.665C49.1234 100.675 45.8424 99.7335 43.0117 97.9521C39.5392 95.9599 36.8328 92.8698 35.3216 89.1713C33.8103 85.4729 33.5805 81.3776 34.6684 77.5342C36.6269 69.9019 41.8364 65.3538 50.4735 63.6165C50.6551 63.5873 50.8403 63.5873 51.0219 63.6165V63.6165C55.0502 63.3334 59.0623 64.3573 62.4583 66.5353C65.8544 68.7132 68.4519 71.9281 69.8628 75.6994C71.2744 79.3091 71.4865 83.2751 70.4676 87.0138C69.4487 90.7526 67.2526 94.0667 64.2026 96.4686C60.891 99.1674 56.7489 100.649 52.4712 100.665V100.665ZM51.0611 67.4815C44.0497 68.9455 40.0542 72.4591 38.4678 78.5298C37.5807 81.5724 37.7543 84.8247 38.9601 87.7564C40.1658 90.6881 42.3326 93.1261 45.1072 94.6728C47.7063 96.1942 50.713 96.8795 53.7172 96.6353C56.7215 96.3911 59.5772 95.2291 61.8946 93.3079C64.212 91.3868 65.8782 88.7999 66.6663 85.9002C67.4544 83.0005 67.326 79.929 66.2984 77.1048C65.1726 74.1061 63.1022 71.5516 60.3977 69.8238C57.6932 68.096 54.5 67.2879 51.2961 67.5205C51.214 67.5218 51.133 67.5016 51.0611 67.4619V67.4815Z" fill="#006635"/>
<path d="M97.2373 75.5417C95.1762 75.5564 93.1483 75.0241 91.3618 73.9996C90.234 73.2564 89.2842 72.2746 88.5802 71.1242C87.8761 69.9738 87.4351 68.6829 87.2882 67.3433C87.1972 66.733 87.0122 66.1405 86.7398 65.5865C86.0365 65.1352 85.2253 64.8792 84.3896 64.8447L84.0762 65.0985C82.529 66.3868 79.65 68.8268 76.2422 67.7922C74.3881 67.2023 72.6763 66.2373 71.2137 64.9576C69.7511 63.6779 68.5693 62.1111 67.7423 60.3552C67.0467 58.9765 66.7902 57.4189 67.0072 55.8909C67.2242 54.3629 67.9044 52.9375 68.9566 51.8054C69.1133 51.5907 69.2503 51.415 69.3874 51.2003C69.6065 50.8841 69.7413 50.5174 69.779 50.1349C69.8167 49.7525 69.756 49.3667 69.6028 49.014C69.4717 48.689 69.2553 48.4051 68.9762 48.1922C68.6971 47.9792 68.3656 47.8451 68.0165 47.8038C59.1837 46.4569 59.536 39.3517 59.7319 35.5258C59.9473 31.329 62.5326 28.7328 67.4485 27.8154C69.2112 27.4835 69.5441 26.7028 69.6812 26.3709C69.8183 26.0391 70.1708 25.2583 68.8782 23.3844C67.3701 21.1396 64.6871 15.2836 72.4036 9.38853C73.8705 8.18903 75.6956 7.50937 77.5922 7.45637C79.4889 7.40337 81.3495 7.98005 82.8816 9.09574L83.5278 9.5642C83.9124 9.86599 84.3182 10.14 84.742 10.3841C84.742 10.3841 84.9183 10.384 85.2121 10.2279C86.8572 9.62275 87.1706 9.17382 87.1706 9.1543C87.1706 9.13478 87.1707 8.4906 87.3274 8.1002C87.436 5.97566 88.2804 3.9544 89.7167 2.38087C92.6153 -0.54712 97.2962 -0.0591306 99.5093 0.175109C101.415 0.213634 103.238 0.959137 104.621 2.2659C106.005 3.57267 106.85 5.34674 106.991 7.24132C107.086 7.89206 107.321 8.51475 107.679 9.06709C108.038 9.61943 108.511 10.0885 109.067 10.4426L110.163 14.1904L109.184 10.4035C109.877 10.1568 110.535 9.82226 111.143 9.40807C113.258 8.19783 117.155 5.89445 121.601 9.19332C124.433 10.9535 126.447 13.7618 127.203 17.0013C127.345 18.2828 127.222 19.5796 126.841 20.8118C126.46 22.044 125.83 23.1853 124.989 24.1651C124.519 24.7703 124.461 24.8483 124.989 26.1171C125.518 27.3859 125.499 27.1712 126.184 27.2688C127.751 27.4835 132.471 28.1472 134.018 32.4806C135.241 35.7542 135.241 39.3574 134.018 42.631C133.397 44.1372 132.337 45.4237 130.976 46.3247C129.615 47.2256 128.014 47.7 126.38 47.6867H125.949C125.495 47.844 125.122 48.1738 124.911 48.6041C124.511 49.1712 124.349 49.8718 124.461 50.5561C124.679 51.0021 124.948 51.4214 125.264 51.8054C126.317 52.9384 127.01 54.3574 127.254 55.8827C127.498 57.4081 127.282 58.9713 126.635 60.3746C124.676 64.5714 121.777 66.9528 118.331 67.4408C115.957 67.7001 113.573 67.059 111.652 65.645C111.201 65.3718 110.79 65.118 110.418 64.9423C110.046 64.7666 109.439 64.5129 107.618 65.8207C107.436 66.1516 107.329 66.518 107.304 66.8943C107.165 67.7284 106.962 68.5507 106.697 69.3538C106.257 70.6013 105.538 71.7328 104.595 72.6627C103.652 73.5927 102.509 74.2967 101.252 74.7218C99.9733 75.2297 98.6138 75.5073 97.2373 75.5417V75.5417ZM84.4482 57.0367C86.7133 57.1067 88.9181 57.7808 90.833 58.9887C91.9589 59.7586 92.9067 60.7596 93.6127 61.9244C94.3187 63.0893 94.7666 64.3911 94.9264 65.7426C95.0072 66.308 95.1653 66.8597 95.3965 67.3823C96.4108 67.8531 97.5683 67.916 98.628 67.558C98.7844 67.5195 98.9311 67.4494 99.0591 67.352C99.1871 67.2546 99.2938 67.1321 99.3723 66.9919C99.4923 66.5678 99.5901 66.1378 99.6659 65.7036C99.7704 64.5073 100.133 63.3475 100.727 62.3033C101.322 61.259 102.136 60.3549 103.113 59.6524C104.546 58.4156 106.298 57.603 108.17 57.3064C110.043 57.0097 111.961 57.2409 113.708 57.9737C114.461 58.3255 115.187 58.73 115.882 59.1839C116.901 59.8086 117.097 59.8867 117.312 59.8672C117.958 59.7696 118.801 58.8326 119.564 57.3491L119.016 56.5683C118.191 55.5581 117.53 54.4252 117.057 53.2108C116.625 51.7866 116.51 50.2854 116.72 48.8121C116.929 47.3388 117.459 45.9288 118.272 44.6806C118.974 43.484 119.934 42.4574 121.082 41.6744C122.23 40.8914 123.538 40.3715 124.911 40.152H125.42C125.832 40.152 126.419 40.0153 126.752 39.9372C127.231 38.5189 127.231 36.9832 126.752 35.5648C126.22 35.3779 125.668 35.2535 125.107 35.1939C123.484 35.01 121.945 34.3794 120.662 33.3727C119.378 32.3659 118.402 31.0229 117.841 29.4941C116.99 27.9366 116.624 26.1622 116.788 24.3965C116.951 22.6307 117.638 20.9535 118.761 19.5779C119.107 19.2186 119.332 18.7619 119.408 18.2701C119.408 18.1139 119.153 17.2551 116.881 15.5764C116.798 15.5067 116.705 15.4476 116.607 15.4006C116.45 15.4006 115.628 15.9472 115.079 16.2595C113.863 17.0454 112.545 17.6626 111.162 18.0944V18.0944C110.523 18.261 109.865 18.3463 109.204 18.3482H108.93C103.25 18.3482 99.5483 12.3751 99.137 8.11974H98.6474C97.4994 7.93458 96.3291 7.93458 95.181 8.11974C95.181 8.41254 95.0438 8.95909 94.985 9.32997C94.9007 10.0326 94.7766 10.73 94.613 11.4186C93.5162 15.6545 89.2272 17.2746 87.817 17.7431C86.3076 18.3473 84.6566 18.5103 83.0575 18.213C81.4585 17.9157 79.9777 17.1704 78.7883 16.0644L78.2203 15.6544C77.9853 15.4787 77.7112 15.2835 77.0648 15.7715C74.3425 17.8406 74.8125 18.5434 75.2629 19.2071C76.4146 20.6613 77.1606 22.3929 77.4254 24.2266C77.6902 26.0604 77.4644 27.9313 76.771 29.6502C76.0553 31.2442 74.9479 32.6324 73.5511 33.6867C72.1544 34.741 70.5135 35.4272 68.7802 35.6819C68.3244 35.7486 67.8777 35.8665 67.4485 36.0333V36.0333C67.3073 37.2766 67.3601 38.5343 67.6051 39.7616V39.7616C68.0599 40.0236 68.5693 40.1772 69.0936 40.2106C70.7374 40.4538 72.292 41.1101 73.6112 42.1175C74.9303 43.1248 75.9705 44.4502 76.6338 45.9689C77.342 47.5318 77.6366 49.2497 77.4892 50.9583C77.3418 52.667 76.7573 54.3094 75.7918 55.7289C75.5959 56.0217 75.3607 56.334 75.1453 56.6268L74.7145 57.2124C75.3684 58.5334 76.4334 59.6084 77.7503 60.2771C78.1833 59.9871 78.5955 59.6674 78.9841 59.3205L79.5716 58.8325C80.9347 57.6811 82.6614 57.0453 84.4482 57.0367V57.0367Z" fill="#006635"/>
<path d="M97.1987 51.1033C94.7612 51.1197 92.3697 50.4425 90.3049 49.1513C87.782 47.7041 85.8163 45.4584 84.7199 42.7707C83.6235 40.0831 83.4591 37.1074 84.253 34.3161C85.7023 28.792 89.4432 25.4931 95.6712 24.2243C95.8404 24.2056 96.0112 24.2056 96.1805 24.2243V24.2243C99.1079 24.0339 102.019 24.7844 104.487 26.3655C106.955 27.9466 108.849 30.2749 109.89 33.0083C110.92 35.6303 111.076 38.513 110.336 41.2303C109.595 43.9476 107.997 46.3552 105.777 48.0972C103.349 50.0511 100.32 51.1126 97.1987 51.1033V51.1033ZM96.2586 28.0698C91.617 29.0458 89.0906 31.2905 88.033 35.2921C87.4571 37.2824 87.5756 39.4086 88.3689 41.3231C89.1622 43.2377 90.5833 44.8276 92.4004 45.8329C94.0991 46.8326 96.0666 47.2839 98.0328 47.1248C99.9991 46.9658 101.868 46.2043 103.383 44.9448C104.897 43.6853 105.984 41.9894 106.493 40.09C107.003 38.1905 106.91 36.1805 106.228 34.3357C105.482 32.3848 104.129 30.7235 102.366 29.5957C100.604 28.4679 98.5251 27.9331 96.4351 28.0698H96.2586Z" fill="#006635"/>
</g>
<defs>
<clipPath id="clip0_219_276">
<rect width="135" height="135" fill="white"/>
</clipPath>
</defs>
</svg>
