<svg width="147" height="140" viewBox="0 0 147 140" fill="none" xmlns="http://www.w3.org/2000/svg">
<path d="M108.033 45.5054C104.833 45.4945 101.671 44.8107 98.7514 43.4986C95.8323 42.1864 93.2216 40.2752 91.0889 37.8889C88.9562 35.5026 87.3491 32.6946 86.3718 29.647C85.3945 26.5994 85.0688 23.3804 85.416 20.1988C85.5289 19.1726 86.0448 18.2332 86.8503 17.5873C87.6558 16.9415 88.6848 16.6421 89.7111 16.755C90.7373 16.8678 91.6769 17.3838 92.3227 18.1893C92.9686 18.9948 93.2679 20.0239 93.155 21.0501C93.1159 21.617 93.1159 22.1858 93.155 22.7527C93.155 25.7221 94.0354 28.6249 95.6851 31.0939C97.3349 33.5628 99.6799 35.4872 102.423 36.6236C105.167 37.7599 108.185 38.0572 111.098 37.4779C114.01 36.8986 116.685 35.4687 118.785 33.369C120.885 31.2693 122.315 28.5941 122.894 25.6817C123.473 22.7694 123.176 19.7506 122.04 17.0072C120.903 14.2638 118.979 11.919 116.51 10.2693C114.041 8.61953 111.138 7.73902 108.169 7.73902C107.142 7.73902 106.158 7.33134 105.433 6.60567C104.707 5.87999 104.299 4.89577 104.299 3.86951C104.299 2.84325 104.707 1.85902 105.433 1.13335C106.158 0.407676 107.142 0 108.169 0C114.203 0 119.99 2.39713 124.257 6.66409C128.524 10.9311 130.921 16.7183 130.921 22.7527C130.921 28.7871 128.524 34.5744 124.257 38.8413C119.99 43.1083 114.203 45.5054 108.169 45.5054H108.033Z" fill="#006635"/>
<path d="M28.6538 94.6086C22.9888 94.6124 17.4499 92.9358 12.7381 89.7909C8.02622 86.646 4.35304 82.1741 2.18337 76.941C0.0137091 71.708 -0.554974 65.949 0.549272 60.3927C1.65352 54.8364 4.38102 49.7324 8.38677 45.7266C12.3925 41.7209 17.4965 38.9934 23.0528 37.8891C28.6092 36.7849 34.3682 37.3536 39.6012 39.5232C44.8343 41.6929 49.3062 45.366 52.4511 50.0779C55.596 54.7897 57.2724 60.3286 57.2686 65.9936C57.2584 73.5796 54.2405 80.852 48.8763 86.2161C43.5122 91.5803 36.2398 94.5983 28.6538 94.6086V94.6086ZM28.6538 45.0982C24.5202 45.0944 20.4783 46.3166 17.0396 48.6103C13.6008 50.904 10.9195 54.166 9.33502 57.9838C7.75053 61.8016 7.33402 66.0036 8.13808 70.0582C8.94215 74.1127 10.9306 77.8378 13.8521 80.762C16.7736 83.6862 20.4968 85.6782 24.5507 86.486C28.6045 87.2938 32.8069 86.8811 36.6261 85.3002C40.4454 83.7192 43.7099 81.041 46.0068 77.6044C48.3037 74.1678 49.5296 70.1271 49.5296 65.9936C49.5245 60.4567 47.3241 55.1478 43.4107 51.2308C39.4974 47.3138 34.1906 45.1085 28.6538 45.0982V45.0982Z" fill="#006635"/>
<path d="M110.187 139.322C104.457 139.324 98.8097 137.959 93.7129 135.341C88.6161 132.723 84.2172 128.927 80.8817 124.268C77.5462 119.609 75.37 114.222 74.534 108.553C73.6979 102.885 74.2261 97.0983 76.0746 91.6747C77.9231 86.2512 81.0387 81.3468 85.1626 77.3687C89.2865 73.3907 94.2996 70.4536 99.7862 68.8015C105.273 67.1494 111.074 66.8298 116.709 67.8693C122.344 68.9087 127.65 71.2773 132.186 74.7783C132.999 75.4043 133.53 76.3278 133.663 77.3456C133.795 78.3633 133.518 79.392 132.892 80.2053C132.266 81.0186 131.342 81.5499 130.324 81.6824C129.307 81.8148 128.278 81.5375 127.465 80.9115C122.406 77.0091 116.175 74.9342 109.787 75.0246C103.399 75.115 97.229 77.3655 92.2829 81.4095C87.3367 85.4535 83.9054 91.0529 82.5474 97.2959C81.1895 103.539 81.9851 110.058 84.8046 115.791C87.6241 121.524 92.3015 126.134 98.0751 128.869C103.849 131.605 110.378 132.306 116.601 130.857C122.823 129.409 128.372 125.896 132.344 120.892C136.315 115.887 138.476 109.686 138.473 103.297C138.474 101.689 138.338 100.083 138.067 98.4984C137.964 97.991 137.964 97.468 138.066 96.9605C138.169 96.453 138.373 95.9713 138.665 95.5439C138.957 95.1164 139.332 94.752 139.768 94.4722C140.203 94.1923 140.691 94.0027 141.201 93.9147C141.711 93.8266 142.234 93.8418 142.738 93.9595C143.242 94.0771 143.718 94.2948 144.137 94.5995C144.555 94.9043 144.908 95.2899 145.175 95.7337C145.442 96.1774 145.617 96.6702 145.69 97.1828C146.581 102.355 146.331 107.659 144.957 112.725C143.583 117.79 141.119 122.495 137.738 126.508C134.356 130.522 130.139 133.748 125.38 135.962C120.621 138.175 115.436 139.322 110.187 139.322V139.322Z" fill="#006635"/>
<path d="M51.9105 59.4553C51.4949 59.4502 51.0923 59.3113 50.7618 59.0593C50.4312 58.8073 50.1907 58.4556 50.0757 58.0563C49.9606 57.6569 49.9771 57.2311 50.1229 56.8419C50.2687 56.4527 50.5361 56.1208 50.8853 55.8954L90.7218 30.7436C90.9365 30.6076 91.1759 30.5153 91.4263 30.4718C91.6767 30.4284 91.9332 30.4347 92.1811 30.4904C92.4291 30.5461 92.6635 30.6501 92.8712 30.7964C93.079 30.9428 93.2559 31.1286 93.3918 31.3434C93.5277 31.558 93.6202 31.7974 93.6636 32.0478C93.7071 32.2982 93.7006 32.5546 93.645 32.8026C93.5893 33.0505 93.4852 33.2851 93.3389 33.4928C93.1925 33.7005 93.0066 33.8774 92.7919 34.0133L52.9554 59.1651C52.6419 59.3595 52.2793 59.4602 51.9105 59.4553Z" fill="#006635"/>
<path d="M80.5802 92.6748C80.3213 92.67 80.0655 92.6175 79.8256 92.5201L49.6241 79.6346C49.3806 79.5423 49.1583 79.4019 48.9704 79.2216C48.7825 79.0414 48.633 78.8251 48.5306 78.5856C48.4283 78.3462 48.3754 78.0886 48.375 77.8282C48.3746 77.5678 48.4267 77.31 48.5283 77.0703C48.6299 76.8305 48.779 76.6138 48.9664 76.433C49.1538 76.2522 49.3757 76.1111 49.6189 76.0181C49.8622 75.9252 50.1216 75.8823 50.3818 75.892C50.642 75.9017 50.8977 75.9638 51.1333 76.0747L81.3348 88.9601C81.7448 89.1348 82.0819 89.4456 82.2892 89.8401C82.4965 90.2346 82.5612 90.6885 82.4725 91.1252C82.3837 91.562 82.147 91.9547 81.8022 92.237C81.4574 92.5193 81.0258 92.674 80.5802 92.6748V92.6748Z" fill="#006635"/>
</svg>
